<svg width="1634" height="432" viewBox="0 0 1634 432" fill="none" xmlns="http://www.w3.org/2000/svg">
<g filter="url(#filter0_d_431_1079)">
<path d="M65.46 212.667C65.8879 180.607 75.4871 151.737 94.7829 124.478C98.0504 119.86 105.411 111.415 111.139 105.712C142.77 74.2098 185.55 59.0569 228.144 64.2666C262.401 68.4576 290.476 82.5966 315.921 108.468C322.482 115.14 327.848 121.035 327.846 121.567C327.846 121.567 296.255 146.758 292.272 149.889L282.723 140.15C257.363 113.132 215.699 103.247 180.322 115.852C147.965 127.383 121.612 158.125 114.638 192.476C108.795 221.255 112.589 246.793 126.541 272.616C131.029 280.925 133.963 284.764 142.349 293.305C158.369 309.62 174.056 318.203 194.753 321.976C230.569 328.505 264.237 318.087 285.13 294.01C299.347 277.625 307.078 257.141 308.59 235.591L354.411 240.954C353.125 254.764 350.375 268.225 345.79 281.327C340.946 295.169 333.208 310.793 323.124 321.579C311.478 334.046 299.911 345.857 284.481 354.092C243.345 376.045 189.216 376.461 147.734 355.141C120.567 341.179 95.2594 315.223 81.9456 287.666C68.8972 260.658 65.053 243.172 65.46 212.667Z" fill="url(#paint0_linear_431_1079)"/>
</g>
<g filter="url(#filter1_d_431_1079)">
<path d="M411.3 166.647C407.685 176.069 405.407 185.662 404.4 195.703L354.846 190.376C354.846 190.376 359.916 163.927 364.922 150.965C382.852 95.2863 442.986 60.4657 499.338 61.1892C525.172 61.5216 545.368 66.5053 566.461 77.7541C626.273 109.652 657.722 177.424 645.037 247.075C643.201 257.155 636.836 275.487 631.636 285.673C622.124 304.302 616.181 312.306 600.331 327.825C587.134 340.746 584.704 342.648 572.542 349.58C524.197 377.129 467.51 375.7 422.39 345.794C408.297 336.453 399.701 329.006 391.193 318.766L384.112 310.243L421.302 282.72C421.302 282.72 425.256 287.955 430.851 293.607C436.445 299.261 444.177 304.363 446.93 306.031C477.999 324.852 512.929 326.473 544.426 310.557C560.762 302.301 579.67 282.84 588.436 265.261C602.001 238.059 603.963 205.937 593.803 177.38C583.922 149.602 563.585 127.714 536.992 116.237C525.608 111.324 516.751 109.685 499.243 109.255C457.198 108.222 425.872 128.667 411.3 166.647Z" fill="url(#paint1_linear_431_1079)"/>
</g>
<g filter="url(#filter2_d_431_1079)">
<path d="M503.021 222.627C482.635 242.564 462.045 247.127 414.123 242.33C394.088 240.323 374.068 238.521 354.056 236.581C338.909 235.113 323.767 233.567 308.628 231.795C291.261 230.414 273.27 226.597 256.28 231.154C244.06 234.427 236.093 246.998 232.246 258.135C227.281 272.514 225.695 275 219.23 278.53C208.772 284.241 196.464 281.18 188.855 270.975C182.621 262.615 183.388 251.09 191.403 232.727C202.378 207.584 221.274 192.32 248.459 186.637C262.38 183.728 278.59 184.836 292.469 186.422C308.583 187.531 331.52 190.697 355.635 193.68C405.922 199.899 461.327 205.316 470.64 189.601C479.521 174.614 477.633 161.267 488.497 150.615C497.405 141.882 512.334 142.66 521.137 151.695C529.357 160.079 525.936 174.315 524.257 179.981C518.18 197.202 514.793 209.31 503.021 222.627Z" fill="url(#paint2_linear_431_1079)"/>
</g>
<line x1="760" y1="28" x2="760" y2="427" stroke="white" stroke-width="8" stroke-linecap="round"/>
<path d="M936.75 178.078V165.266C936.75 157.922 935.865 153 934.094 150.5C932.323 147.948 928.599 146.854 922.922 147.219L922.609 145.734C931.203 143.182 939.38 141.906 947.141 141.906C948.182 144.771 948.703 147.766 948.703 150.891V173.312C948.703 178.208 949.198 181.333 950.188 182.688L949.719 183.547C945.604 183.547 941.151 184.198 936.359 185.5C931.568 186.75 926.438 188 920.969 189.25C915.5 190.552 909.927 191.203 904.25 191.203C896.385 191.203 889.068 189.771 882.297 186.906C875.526 183.99 869.693 179.953 864.797 174.797C859.953 169.641 856.125 163.286 853.312 155.734C850.552 148.182 849.172 139.953 849.172 131.047C849.172 122.87 850.266 115.448 852.453 108.781C854.693 102.062 857.714 96.4115 861.516 91.8281C865.37 87.2448 869.979 83.3906 875.344 80.2656C880.708 77.0885 886.464 74.7969 892.609 73.3906C898.807 71.9323 905.396 71.2031 912.375 71.2031C924.302 71.2031 935.5 73.651 945.969 78.5469C944.146 85.0573 941.542 91.9323 938.156 99.1719L936.047 98.3906C936.88 92.1927 937.062 87.0885 936.594 83.0781C934.302 81.776 932.036 80.7083 929.797 79.875C927.557 78.9896 925.188 78.3125 922.688 77.8438C920.188 77.3229 917.479 76.9844 914.562 76.8281C911.698 76.6198 908.469 76.5156 904.875 76.5156C900.083 76.5156 895.604 77.1406 891.438 78.3906C887.323 79.5885 883.469 81.5938 879.875 84.4062C876.281 87.2188 873.208 90.7604 870.656 95.0312C868.104 99.25 866.099 104.536 864.641 110.891C863.182 117.193 862.453 124.328 862.453 132.297C862.453 139.953 863.755 147.167 866.359 153.938C868.964 160.708 872.401 166.411 876.672 171.047C880.995 175.682 885.969 179.354 891.594 182.062C897.219 184.719 903.026 186.047 909.016 186.047C914.953 186.047 919.927 185.526 923.938 184.484C928 183.391 932.271 181.255 936.75 178.078ZM977.141 130.109C977.141 126.62 976.958 123.703 976.594 121.359C976.281 119.016 975.682 117.141 974.797 115.734C973.964 114.328 972.792 113.339 971.281 112.766C969.771 112.193 967.141 111.932 963.391 111.984L963.078 110.578C971.568 108.026 979.458 106.75 986.75 106.75C987.844 109.51 988.391 112.479 988.391 115.656V125.266L988.703 125.578C990.891 122.557 992.974 119.875 994.953 117.531C996.984 115.188 999.042 113.234 1001.12 111.672C1003.21 110.109 1005.4 108.938 1007.69 108.156C1009.98 107.323 1012.53 106.906 1015.34 106.906C1017.11 106.906 1019.07 107.062 1021.2 107.375L1016.67 126.438L1013.78 125.578C1013.78 124.797 1013.73 123.729 1013.62 122.375C1013.52 121.021 1013.36 119.693 1013.16 118.391C1013 117.036 1012.77 115.891 1012.45 114.953C1012.19 113.964 1011.88 113.469 1011.52 113.469C1010.01 113.469 1008.47 113.807 1006.91 114.484C1005.4 115.109 1003.73 116.151 1001.91 117.609C1000.08 119.068 998.078 120.969 995.891 123.312C993.703 125.656 991.203 128.495 988.391 131.828V177.297C988.391 178.964 988.521 180.318 988.781 181.359C989.042 182.349 989.589 183.182 990.422 183.859C991.255 184.536 992.427 185.135 993.938 185.656C995.448 186.177 997.427 186.75 999.875 187.375L999.25 189.25C996.229 188.833 993.651 188.521 991.516 188.312C989.432 188.104 987.74 188 986.438 188C983.469 188 980.005 188.417 976.047 189.25L975.578 188.469C976.62 186.958 977.141 184.198 977.141 180.188V130.109ZM1091.59 179.172C1091.59 180.057 1091.78 180.891 1092.14 181.672C1092.56 182.401 1093.03 183.026 1093.55 183.547C1094.12 184.016 1094.93 184.484 1095.97 184.953C1097.01 185.422 1097.92 185.786 1098.7 186.047C1099.48 186.307 1100.58 186.646 1101.98 187.062L1101.36 188.938C1098.03 188.312 1094.72 188 1091.44 188C1087.32 188 1083.26 188.417 1079.25 189.25L1078.78 188.469C1079.88 186.958 1080.42 184.198 1080.42 180.188V175.031C1077.82 179.875 1073.76 183.781 1068.23 186.75C1062.77 189.719 1057.22 191.203 1051.59 191.203C1045.6 191.203 1040.76 189.667 1037.06 186.594C1033.42 183.469 1031.59 178.859 1031.59 172.766C1031.59 168.807 1032.4 165.292 1034.02 162.219C1035.68 159.094 1037.87 156.464 1040.58 154.328C1043.34 152.141 1046.85 150.214 1051.12 148.547C1055.45 146.88 1059.88 145.526 1064.41 144.484C1068.99 143.443 1074.33 142.479 1080.42 141.594V134.406C1080.42 120.083 1074.77 112.922 1063.47 112.922C1059.82 112.922 1055.34 113.833 1050.03 115.656C1044.77 117.427 1040.34 119.771 1036.75 122.688L1033.55 119.016C1038.08 115.422 1043.44 112.453 1049.64 110.109C1055.89 107.766 1061.72 106.594 1067.14 106.594C1069.54 106.594 1071.8 106.828 1073.94 107.297C1076.12 107.714 1078.31 108.521 1080.5 109.719C1082.74 110.865 1084.64 112.349 1086.2 114.172C1087.82 115.943 1089.12 118.339 1090.11 121.359C1091.1 124.328 1091.59 127.714 1091.59 131.516V179.172ZM1055.27 185.266C1059.8 185.266 1064.54 183.781 1069.48 180.812C1074.43 177.792 1078.08 174.042 1080.42 169.562V145.734C1067.09 147.661 1057.56 150.63 1051.83 154.641C1046.15 158.599 1043.31 164.38 1043.31 171.984C1043.31 176.62 1044.3 180.005 1046.28 182.141C1048.26 184.224 1051.26 185.266 1055.27 185.266ZM1171.05 169.797C1171.05 173.547 1170.29 176.776 1168.78 179.484C1167.27 182.193 1165.24 184.432 1162.69 186.203C1160.19 187.922 1157.24 189.172 1153.86 189.953C1150.53 190.786 1147.01 191.203 1143.31 191.203C1134.35 191.203 1125.94 189.328 1118.08 185.578C1119.07 182.141 1120.06 178.964 1121.05 176.047C1122.04 173.078 1123.05 170.344 1124.09 167.844L1126.36 168.625C1125.89 170.917 1125.66 173.13 1125.66 175.266C1125.66 177.349 1125.73 179.25 1125.89 180.969C1127.51 181.802 1129.02 182.531 1130.42 183.156C1131.83 183.729 1133.23 184.224 1134.64 184.641C1136.05 185.005 1137.56 185.292 1139.17 185.5C1140.79 185.656 1142.66 185.734 1144.8 185.734C1147.97 185.734 1150.6 185.526 1152.69 185.109C1154.77 184.693 1156.39 183.99 1157.53 183C1158.73 181.958 1159.56 180.604 1160.03 178.938C1160.5 177.219 1160.73 175.109 1160.73 172.609C1160.73 170.682 1160.4 168.885 1159.72 167.219C1159.09 165.5 1157.97 163.807 1156.36 162.141C1154.8 160.474 1152.69 158.755 1150.03 156.984C1147.43 155.161 1144.17 153.182 1140.27 151.047C1133.96 147.297 1129.2 143.573 1125.97 139.875C1122.74 136.125 1121.12 132.115 1121.12 127.844C1121.12 124.458 1121.83 121.464 1123.23 118.859C1124.64 116.203 1126.54 113.99 1128.94 112.219C1131.39 110.396 1134.22 109.042 1137.45 108.156C1140.68 107.219 1144.09 106.75 1147.69 106.75C1149.51 106.75 1151.41 106.88 1153.39 107.141C1155.42 107.401 1157.38 107.792 1159.25 108.312C1161.12 108.781 1162.87 109.38 1164.48 110.109C1166.15 110.786 1167.58 111.568 1168.78 112.453C1167.11 119.276 1165.08 125.266 1162.69 130.422L1160.42 129.562C1160.53 128.052 1160.6 126.203 1160.66 124.016C1160.71 121.776 1160.73 119.146 1160.73 116.125C1157.35 113.469 1152.66 112.141 1146.67 112.141C1143.7 112.141 1141.18 112.323 1139.09 112.688C1137.06 113.052 1135.42 113.677 1134.17 114.562C1132.92 115.448 1132.01 116.672 1131.44 118.234C1130.92 119.745 1130.66 121.672 1130.66 124.016C1130.66 125.734 1130.89 127.349 1131.36 128.859C1131.83 130.318 1132.66 131.776 1133.86 133.234C1135.06 134.641 1136.67 136.099 1138.7 137.609C1140.79 139.068 1143.44 140.656 1146.67 142.375C1151.72 145.135 1155.81 147.557 1158.94 149.641C1162.11 151.724 1164.59 153.781 1166.36 155.812C1168.18 157.792 1169.41 159.875 1170.03 162.062C1170.71 164.25 1171.05 166.828 1171.05 169.797ZM1241.67 169.797C1241.67 173.547 1240.92 176.776 1239.41 179.484C1237.9 182.193 1235.86 184.432 1233.31 186.203C1230.81 187.922 1227.87 189.172 1224.48 189.953C1221.15 190.786 1217.64 191.203 1213.94 191.203C1204.98 191.203 1196.57 189.328 1188.7 185.578C1189.69 182.141 1190.68 178.964 1191.67 176.047C1192.66 173.078 1193.68 170.344 1194.72 167.844L1196.98 168.625C1196.52 170.917 1196.28 173.13 1196.28 175.266C1196.28 177.349 1196.36 179.25 1196.52 180.969C1198.13 181.802 1199.64 182.531 1201.05 183.156C1202.45 183.729 1203.86 184.224 1205.27 184.641C1206.67 185.005 1208.18 185.292 1209.8 185.5C1211.41 185.656 1213.29 185.734 1215.42 185.734C1218.6 185.734 1221.23 185.526 1223.31 185.109C1225.4 184.693 1227.01 183.99 1228.16 183C1229.35 181.958 1230.19 180.604 1230.66 178.938C1231.12 177.219 1231.36 175.109 1231.36 172.609C1231.36 170.682 1231.02 168.885 1230.34 167.219C1229.72 165.5 1228.6 163.807 1226.98 162.141C1225.42 160.474 1223.31 158.755 1220.66 156.984C1218.05 155.161 1214.8 153.182 1210.89 151.047C1204.59 147.297 1199.82 143.573 1196.59 139.875C1193.36 136.125 1191.75 132.115 1191.75 127.844C1191.75 124.458 1192.45 121.464 1193.86 118.859C1195.27 116.203 1197.17 113.99 1199.56 112.219C1202.01 110.396 1204.85 109.042 1208.08 108.156C1211.31 107.219 1214.72 106.75 1218.31 106.75C1220.14 106.75 1222.04 106.88 1224.02 107.141C1226.05 107.401 1228 107.792 1229.88 108.312C1231.75 108.781 1233.49 109.38 1235.11 110.109C1236.78 110.786 1238.21 111.568 1239.41 112.453C1237.74 119.276 1235.71 125.266 1233.31 130.422L1231.05 129.562C1231.15 128.052 1231.23 126.203 1231.28 124.016C1231.33 121.776 1231.36 119.146 1231.36 116.125C1227.97 113.469 1223.29 112.141 1217.3 112.141C1214.33 112.141 1211.8 112.323 1209.72 112.688C1207.69 113.052 1206.05 113.677 1204.8 114.562C1203.55 115.448 1202.64 116.672 1202.06 118.234C1201.54 119.745 1201.28 121.672 1201.28 124.016C1201.28 125.734 1201.52 127.349 1201.98 128.859C1202.45 130.318 1203.29 131.776 1204.48 133.234C1205.68 134.641 1207.3 136.099 1209.33 137.609C1211.41 139.068 1214.07 140.656 1217.3 142.375C1222.35 145.135 1226.44 147.557 1229.56 149.641C1232.74 151.724 1235.21 153.781 1236.98 155.812C1238.81 157.792 1240.03 159.875 1240.66 162.062C1241.33 164.25 1241.67 166.828 1241.67 169.797ZM1268.55 130.109C1268.55 126.62 1268.36 123.703 1268 121.359C1267.69 119.016 1267.09 117.141 1266.2 115.734C1265.37 114.328 1264.2 113.339 1262.69 112.766C1261.18 112.193 1258.55 111.932 1254.8 111.984L1254.48 110.578C1262.97 108.026 1270.86 106.75 1278.16 106.75C1279.25 109.51 1279.8 112.479 1279.8 115.656V125.266L1280.11 125.578C1282.3 122.557 1284.38 119.875 1286.36 117.531C1288.39 115.188 1290.45 113.234 1292.53 111.672C1294.61 110.109 1296.8 108.938 1299.09 108.156C1301.39 107.323 1303.94 106.906 1306.75 106.906C1308.52 106.906 1310.47 107.062 1312.61 107.375L1308.08 126.438L1305.19 125.578C1305.19 124.797 1305.14 123.729 1305.03 122.375C1304.93 121.021 1304.77 119.693 1304.56 118.391C1304.41 117.036 1304.17 115.891 1303.86 114.953C1303.6 113.964 1303.29 113.469 1302.92 113.469C1301.41 113.469 1299.88 113.807 1298.31 114.484C1296.8 115.109 1295.14 116.151 1293.31 117.609C1291.49 119.068 1289.48 120.969 1287.3 123.312C1285.11 125.656 1282.61 128.495 1279.8 131.828V177.297C1279.8 178.964 1279.93 180.318 1280.19 181.359C1280.45 182.349 1280.99 183.182 1281.83 183.859C1282.66 184.536 1283.83 185.135 1285.34 185.656C1286.85 186.177 1288.83 186.75 1291.28 187.375L1290.66 189.25C1287.64 188.833 1285.06 188.521 1282.92 188.312C1280.84 188.104 1279.15 188 1277.84 188C1274.88 188 1271.41 188.417 1267.45 189.25L1266.98 188.469C1268.03 186.958 1268.55 184.198 1268.55 180.188V130.109ZM1362.69 106.75C1374.67 106.75 1384.07 110.422 1390.89 117.766C1397.71 125.109 1401.12 135.344 1401.12 148.469C1401.12 156.073 1399.38 163.156 1395.89 169.719C1392.4 176.281 1387.66 181.516 1381.67 185.422C1375.68 189.276 1369.2 191.203 1362.22 191.203C1350.19 191.203 1340.76 187.583 1333.94 180.344C1327.17 173.052 1323.78 162.74 1323.78 149.406C1323.78 141.49 1325.53 134.276 1329.02 127.766C1332.51 121.203 1337.22 116.073 1343.16 112.375C1349.15 108.625 1355.66 106.75 1362.69 106.75ZM1361.12 112.141C1357.01 112.141 1353.44 112.74 1350.42 113.938C1347.4 115.135 1344.98 116.75 1343.16 118.781C1341.33 120.812 1339.88 123.391 1338.78 126.516C1337.69 129.641 1336.93 132.844 1336.52 136.125C1336.15 139.406 1335.97 143.208 1335.97 147.531C1335.97 154.406 1336.78 160.422 1338.39 165.578C1340.06 170.682 1342.27 174.667 1345.03 177.531C1347.79 180.344 1350.73 182.427 1353.86 183.781C1356.98 185.083 1360.29 185.734 1363.78 185.734C1367.84 185.734 1371.39 185.109 1374.41 183.859C1377.48 182.557 1379.93 180.891 1381.75 178.859C1383.57 176.776 1385.03 174.172 1386.12 171.047C1387.22 167.87 1387.95 164.667 1388.31 161.438C1388.73 158.208 1388.94 154.536 1388.94 150.422C1388.94 144.641 1388.39 139.484 1387.3 134.953C1386.2 130.422 1384.74 126.75 1382.92 123.938C1381.15 121.125 1379.02 118.807 1376.52 116.984C1374.07 115.161 1371.59 113.911 1369.09 113.234C1366.59 112.505 1363.94 112.141 1361.12 112.141ZM1455.97 106.75C1467.95 106.75 1477.35 110.422 1484.17 117.766C1490.99 125.109 1494.41 135.344 1494.41 148.469C1494.41 156.073 1492.66 163.156 1489.17 169.719C1485.68 176.281 1480.94 181.516 1474.95 185.422C1468.96 189.276 1462.48 191.203 1455.5 191.203C1443.47 191.203 1434.04 187.583 1427.22 180.344C1420.45 173.052 1417.06 162.74 1417.06 149.406C1417.06 141.49 1418.81 134.276 1422.3 127.766C1425.79 121.203 1430.5 116.073 1436.44 112.375C1442.43 108.625 1448.94 106.75 1455.97 106.75ZM1454.41 112.141C1450.29 112.141 1446.72 112.74 1443.7 113.938C1440.68 115.135 1438.26 116.75 1436.44 118.781C1434.61 120.812 1433.16 123.391 1432.06 126.516C1430.97 129.641 1430.21 132.844 1429.8 136.125C1429.43 139.406 1429.25 143.208 1429.25 147.531C1429.25 154.406 1430.06 160.422 1431.67 165.578C1433.34 170.682 1435.55 174.667 1438.31 177.531C1441.07 180.344 1444.02 182.427 1447.14 183.781C1450.27 185.083 1453.57 185.734 1457.06 185.734C1461.12 185.734 1464.67 185.109 1467.69 183.859C1470.76 182.557 1473.21 180.891 1475.03 178.859C1476.85 176.776 1478.31 174.172 1479.41 171.047C1480.5 167.87 1481.23 164.667 1481.59 161.438C1482.01 158.208 1482.22 154.536 1482.22 150.422C1482.22 144.641 1481.67 139.484 1480.58 134.953C1479.48 130.422 1478.03 126.75 1476.2 123.938C1474.43 121.125 1472.3 118.807 1469.8 116.984C1467.35 115.161 1464.88 113.911 1462.38 113.234C1459.88 112.505 1457.22 112.141 1454.41 112.141ZM1532.45 166.438C1532.45 173.521 1533.23 178.417 1534.8 181.125C1536.36 183.781 1538.89 185.109 1542.38 185.109C1546.18 185.109 1550.81 183.677 1556.28 180.812L1558.7 184.172C1550.11 188.859 1543.08 191.203 1537.61 191.203C1534.69 191.203 1532.32 190.943 1530.5 190.422C1528.68 189.901 1527.01 188.885 1525.5 187.375C1523.99 185.865 1522.9 183.651 1522.22 180.734C1521.59 177.766 1521.28 173.938 1521.28 169.25V116.281L1509.56 116.984V111.984C1513.68 111.099 1517.58 110.526 1521.28 110.266V99.1719C1525.71 96.6719 1529.33 93.1042 1532.14 88.4688L1534.56 89.4062C1533.68 91.4896 1533.1 93.8594 1532.84 96.5156C1532.58 99.1198 1532.45 103.547 1532.45 109.797H1559.33V112.531C1557.14 113.417 1554.93 114.172 1552.69 114.797C1550.45 115.37 1548.13 115.656 1545.73 115.656H1532.45V166.438ZM1625.11 169.797C1625.11 173.547 1624.35 176.776 1622.84 179.484C1621.33 182.193 1619.3 184.432 1616.75 186.203C1614.25 187.922 1611.31 189.172 1607.92 189.953C1604.59 190.786 1601.07 191.203 1597.38 191.203C1588.42 191.203 1580.01 189.328 1572.14 185.578C1573.13 182.141 1574.12 178.964 1575.11 176.047C1576.1 173.078 1577.11 170.344 1578.16 167.844L1580.42 168.625C1579.95 170.917 1579.72 173.13 1579.72 175.266C1579.72 177.349 1579.8 179.25 1579.95 180.969C1581.57 181.802 1583.08 182.531 1584.48 183.156C1585.89 183.729 1587.3 184.224 1588.7 184.641C1590.11 185.005 1591.62 185.292 1593.23 185.5C1594.85 185.656 1596.72 185.734 1598.86 185.734C1602.04 185.734 1604.67 185.526 1606.75 185.109C1608.83 184.693 1610.45 183.99 1611.59 183C1612.79 181.958 1613.62 180.604 1614.09 178.938C1614.56 177.219 1614.8 175.109 1614.8 172.609C1614.8 170.682 1614.46 168.885 1613.78 167.219C1613.16 165.5 1612.04 163.807 1610.42 162.141C1608.86 160.474 1606.75 158.755 1604.09 156.984C1601.49 155.161 1598.23 153.182 1594.33 151.047C1588.03 147.297 1583.26 143.573 1580.03 139.875C1576.8 136.125 1575.19 132.115 1575.19 127.844C1575.19 124.458 1575.89 121.464 1577.3 118.859C1578.7 116.203 1580.6 113.99 1583 112.219C1585.45 110.396 1588.29 109.042 1591.52 108.156C1594.74 107.219 1598.16 106.75 1601.75 106.75C1603.57 106.75 1605.47 106.88 1607.45 107.141C1609.48 107.401 1611.44 107.792 1613.31 108.312C1615.19 108.781 1616.93 109.38 1618.55 110.109C1620.21 110.786 1621.65 111.568 1622.84 112.453C1621.18 119.276 1619.15 125.266 1616.75 130.422L1614.48 129.562C1614.59 128.052 1614.67 126.203 1614.72 124.016C1614.77 121.776 1614.8 119.146 1614.8 116.125C1611.41 113.469 1606.72 112.141 1600.73 112.141C1597.77 112.141 1595.24 112.323 1593.16 112.688C1591.12 113.052 1589.48 113.677 1588.23 114.562C1586.98 115.448 1586.07 116.672 1585.5 118.234C1584.98 119.745 1584.72 121.672 1584.72 124.016C1584.72 125.734 1584.95 127.349 1585.42 128.859C1585.89 130.318 1586.72 131.776 1587.92 133.234C1589.12 134.641 1590.73 136.099 1592.77 137.609C1594.85 139.068 1597.51 140.656 1600.73 142.375C1605.79 145.135 1609.88 147.557 1613 149.641C1616.18 151.724 1618.65 153.781 1620.42 155.812C1622.24 157.792 1623.47 159.875 1624.09 162.062C1624.77 164.25 1625.11 166.828 1625.11 169.797Z" fill="white"/>
<path d="M869.924 351.83L893.986 351.078C897.313 350.987 900.116 350.6 902.395 349.916C904.673 349.232 906.633 348.275 908.273 347.045C909.914 345.769 911.35 344.219 912.58 342.396C913.811 340.528 915.041 338.386 916.271 335.971L918.254 336.791L911.486 355.043L910.393 356H860.695C859.829 354.132 859.396 351.898 859.396 349.301V276.635C859.396 273.627 859.26 271.166 858.986 269.252C858.713 267.292 858.212 265.743 857.482 264.604C856.753 263.419 855.728 262.598 854.406 262.143C853.13 261.687 851.467 261.459 849.416 261.459C849.097 261.459 848.755 261.459 848.391 261.459C848.072 261.459 847.73 261.482 847.365 261.527L847.092 259.545C860.08 257.494 874.39 256.469 890.021 256.469C897.997 256.469 906.359 256.742 915.109 257.289L915.588 258.451L909.094 275.473L906.906 274.789C907.271 273.057 907.544 271.462 907.727 270.004C907.909 268.546 908 267.133 908 265.766C908 264.353 907.818 263.031 907.453 261.801C904.035 261.482 900.663 261.254 897.336 261.117C894.055 260.935 890.773 260.844 887.492 260.844C881.522 260.844 875.666 261.117 869.924 261.664V300.287L907.316 298.236L908 298.988L904.787 304.594C902.736 304.503 900.663 304.434 898.566 304.389C896.47 304.343 894.328 304.32 892.141 304.32C888.586 304.32 884.963 304.389 881.271 304.525C877.58 304.662 873.798 304.844 869.924 305.072V351.83ZM965.217 358.803C960.432 358.803 955.988 357.846 951.887 355.932C947.785 354.018 944.367 351.465 941.633 348.275C938.898 345.04 936.757 341.371 935.207 337.27C933.658 333.122 932.883 328.816 932.883 324.35C932.883 317.969 933.817 312.25 935.686 307.191C937.554 302.133 940.152 298.008 943.479 294.818C946.805 291.583 950.679 289.122 955.1 287.436C959.566 285.749 964.442 284.906 969.729 284.906C975.562 284.906 981.577 285.977 987.775 288.119L983.332 304.867L980.803 304.184C981.304 299.398 981.167 295.297 980.393 291.879C975.288 290.375 970.663 289.623 966.516 289.623C958.495 289.623 952.661 292.243 949.016 297.484C945.37 302.68 943.547 310.382 943.547 320.59C943.547 330.115 945.757 338.044 950.178 344.379C954.644 350.714 960.272 353.881 967.062 353.881C975.493 353.881 982.352 351.238 987.639 345.951L990.441 348.891C987.023 352.445 983.286 354.975 979.23 356.479C975.22 358.028 970.549 358.803 965.217 358.803ZM1034.6 284.906C1045.08 284.906 1053.31 288.119 1059.28 294.545C1065.25 300.971 1068.23 309.926 1068.23 321.41C1068.23 328.064 1066.71 334.262 1063.65 340.004C1060.6 345.746 1056.45 350.326 1051.21 353.744C1045.97 357.117 1040.3 358.803 1034.19 358.803C1023.66 358.803 1015.42 355.635 1009.45 349.301C1003.52 342.921 1000.56 333.897 1000.56 322.23C1000.56 315.303 1002.09 308.992 1005.14 303.295C1008.19 297.553 1012.32 293.064 1017.51 289.828C1022.75 286.547 1028.45 284.906 1034.6 284.906ZM1033.23 289.623C1029.63 289.623 1026.51 290.147 1023.87 291.195C1021.23 292.243 1019.11 293.656 1017.51 295.434C1015.92 297.211 1014.64 299.467 1013.68 302.201C1012.73 304.936 1012.07 307.738 1011.7 310.609C1011.38 313.48 1011.22 316.807 1011.22 320.59C1011.22 326.605 1011.93 331.869 1013.34 336.381C1014.8 340.847 1016.74 344.333 1019.15 346.84C1021.57 349.301 1024.14 351.124 1026.88 352.309C1029.61 353.448 1032.51 354.018 1035.56 354.018C1039.11 354.018 1042.21 353.471 1044.86 352.377C1047.54 351.238 1049.69 349.779 1051.28 348.002C1052.88 346.179 1054.15 343.9 1055.11 341.166C1056.07 338.386 1056.7 335.583 1057.02 332.758C1057.39 329.932 1057.57 326.719 1057.57 323.119C1057.57 318.061 1057.09 313.549 1056.13 309.584C1055.18 305.619 1053.9 302.406 1052.31 299.945C1050.76 297.484 1048.89 295.456 1046.7 293.861C1044.56 292.266 1042.39 291.173 1040.21 290.58C1038.02 289.942 1035.7 289.623 1033.23 289.623ZM1091 305.346C1091 302.292 1090.84 299.74 1090.52 297.689C1090.25 295.639 1089.72 293.998 1088.95 292.768C1088.22 291.537 1087.19 290.671 1085.87 290.17C1084.55 289.669 1083.14 289.418 1081.63 289.418C1080.17 289.418 1079.29 289.441 1078.97 289.486L1078.69 288.256C1086.12 286.023 1093.03 284.906 1099.41 284.906C1100.36 287.322 1100.84 289.919 1100.84 292.699V294.682C1103.49 292.904 1105.92 291.355 1108.16 290.033C1110.39 288.712 1112.58 287.595 1114.72 286.684C1116.91 285.772 1119.14 285.089 1121.42 284.633C1123.7 284.177 1126.2 283.949 1128.94 283.949C1131.4 283.949 1133.84 284.268 1136.25 284.906C1138.71 285.544 1140.9 286.684 1142.81 288.324C1144.77 289.965 1146.35 292.198 1147.53 295.023C1148.76 297.849 1149.38 301.426 1149.38 305.756V348.275C1149.38 349.369 1149.63 350.281 1150.13 351.01C1150.68 351.739 1151.36 352.354 1152.18 352.855C1153.05 353.357 1154.03 353.79 1155.12 354.154C1156.21 354.473 1157.35 354.815 1158.54 355.18L1157.92 356.82C1155.37 356.273 1151.97 356 1147.74 356C1145.14 356 1142.11 356.365 1138.64 357.094L1138.23 356.41C1139.15 355.089 1139.6 352.673 1139.6 349.164V308.285C1139.6 304.457 1139.24 301.335 1138.51 298.92C1137.78 296.459 1136.78 294.545 1135.5 293.178C1134.27 291.765 1132.81 290.785 1131.12 290.238C1129.48 289.691 1127.73 289.418 1125.86 289.418C1123.58 289.418 1121.44 289.623 1119.44 290.033C1117.48 290.443 1115.49 291.081 1113.49 291.947C1111.53 292.768 1109.52 293.816 1107.47 295.092C1105.42 296.322 1103.21 297.781 1100.84 299.467V346.635C1100.84 348.093 1100.96 349.278 1101.18 350.189C1101.41 351.055 1101.89 351.785 1102.62 352.377C1103.35 352.969 1104.37 353.493 1105.7 353.949C1107.02 354.405 1108.75 354.906 1110.89 355.453L1110.34 357.094C1107.7 356.729 1105.44 356.456 1103.58 356.273C1101.75 356.091 1100.27 356 1099.13 356C1096.54 356 1093.5 356.365 1090.04 357.094L1089.63 356.41C1090.54 355.089 1091 352.673 1091 349.164V305.346ZM1205.91 284.906C1216.39 284.906 1224.62 288.119 1230.59 294.545C1236.56 300.971 1239.54 309.926 1239.54 321.41C1239.54 328.064 1238.02 334.262 1234.96 340.004C1231.91 345.746 1227.76 350.326 1222.52 353.744C1217.28 357.117 1211.61 358.803 1205.5 358.803C1194.97 358.803 1186.72 355.635 1180.75 349.301C1174.83 342.921 1171.87 333.897 1171.87 322.23C1171.87 315.303 1173.39 308.992 1176.45 303.295C1179.5 297.553 1183.62 293.064 1188.82 289.828C1194.06 286.547 1199.76 284.906 1205.91 284.906ZM1204.54 289.623C1200.94 289.623 1197.82 290.147 1195.18 291.195C1192.53 292.243 1190.42 293.656 1188.82 295.434C1187.23 297.211 1185.95 299.467 1184.99 302.201C1184.04 304.936 1183.37 307.738 1183.01 310.609C1182.69 313.48 1182.53 316.807 1182.53 320.59C1182.53 326.605 1183.24 331.869 1184.65 336.381C1186.11 340.847 1188.05 344.333 1190.46 346.84C1192.88 349.301 1195.45 351.124 1198.19 352.309C1200.92 353.448 1203.81 354.018 1206.87 354.018C1210.42 354.018 1213.52 353.471 1216.16 352.377C1218.85 351.238 1220.99 349.779 1222.59 348.002C1224.18 346.179 1225.46 343.9 1226.42 341.166C1227.38 338.386 1228.01 335.583 1228.33 332.758C1228.7 329.932 1228.88 326.719 1228.88 323.119C1228.88 318.061 1228.4 313.549 1227.44 309.584C1226.49 305.619 1225.21 302.406 1223.62 299.945C1222.07 297.484 1220.2 295.456 1218.01 293.861C1215.87 292.266 1213.7 291.173 1211.52 290.58C1209.33 289.942 1207 289.623 1204.54 289.623ZM1352.88 340.482V309.105C1352.88 305.141 1352.45 301.928 1351.58 299.467C1350.76 297.006 1349.67 295.092 1348.3 293.725C1346.98 292.357 1345.48 291.446 1343.79 290.99C1342.15 290.489 1340.51 290.238 1338.87 290.238C1335.68 290.238 1332.38 290.876 1328.96 292.152C1325.58 293.428 1322.01 295.434 1318.22 298.168C1318.95 300.629 1319.32 303.432 1319.32 306.576V348.275C1319.32 349.415 1319.57 350.349 1320.07 351.078C1320.62 351.807 1321.3 352.423 1322.12 352.924C1322.99 353.425 1323.97 353.858 1325.06 354.223C1326.15 354.542 1327.27 354.861 1328.41 355.18L1327.86 356.82C1325.17 356.273 1321.76 356 1317.61 356C1315.01 356 1311.98 356.365 1308.52 357.094L1308.11 356.41C1309.06 355.134 1309.54 352.719 1309.54 349.164V309.105C1309.54 305.186 1309.09 301.996 1308.18 299.535C1307.26 297.074 1306.08 295.16 1304.62 293.793C1303.16 292.38 1301.52 291.423 1299.7 290.922C1297.88 290.421 1296.08 290.17 1294.3 290.17C1292.25 290.17 1290.33 290.398 1288.56 290.854C1286.78 291.264 1285.02 291.879 1283.29 292.699C1281.61 293.52 1279.85 294.568 1278.03 295.844C1276.21 297.074 1274.25 298.51 1272.15 300.15V346.635C1272.15 348.093 1272.26 349.278 1272.49 350.189C1272.72 351.055 1273.2 351.785 1273.93 352.377C1274.66 352.969 1275.68 353.493 1277 353.949C1278.33 354.405 1280.06 354.906 1282.2 355.453L1281.65 357.094C1279.01 356.729 1276.75 356.456 1274.88 356.273C1273.06 356.091 1271.58 356 1270.44 356C1267.84 356 1264.81 356.365 1261.35 357.094L1260.94 356.41C1261.85 355.089 1262.31 352.673 1262.31 349.164V305.346C1262.31 302.292 1262.15 299.74 1261.83 297.689C1261.55 295.639 1261.03 293.998 1260.26 292.768C1259.53 291.537 1258.5 290.671 1257.18 290.17C1255.86 289.669 1254.17 289.418 1252.12 289.418C1251.85 289.418 1251.55 289.418 1251.23 289.418C1250.91 289.418 1250.59 289.441 1250.28 289.486L1250 288.256C1257.43 286.023 1264.33 284.906 1270.71 284.906C1271.67 287.322 1272.15 289.919 1272.15 292.699V295.502C1274.61 293.633 1276.84 292.038 1278.85 290.717C1280.9 289.35 1282.88 288.233 1284.8 287.367C1286.76 286.501 1288.74 285.863 1290.74 285.453C1292.75 285.043 1294.98 284.838 1297.44 284.838C1299.22 284.838 1301.02 284.997 1302.84 285.316C1304.71 285.59 1306.49 286.114 1308.18 286.889C1309.91 287.618 1311.5 288.598 1312.96 289.828C1314.42 291.059 1315.65 292.631 1316.65 294.545C1318.89 292.904 1321.03 291.469 1323.08 290.238C1325.13 289.008 1327.16 287.982 1329.16 287.162C1331.17 286.342 1333.2 285.749 1335.25 285.385C1337.3 284.975 1339.46 284.77 1341.74 284.77C1344.25 284.77 1346.73 285.111 1349.19 285.795C1351.7 286.433 1353.95 287.572 1355.96 289.213C1357.96 290.854 1359.58 293.087 1360.81 295.912C1362.09 298.692 1362.73 302.247 1362.73 306.576V348.275C1362.73 349.415 1362.98 350.349 1363.48 351.078C1364.03 351.807 1364.71 352.423 1365.53 352.924C1366.4 353.425 1367.38 353.858 1368.47 354.223C1369.56 354.542 1370.68 354.861 1371.82 355.18L1371.27 356.82C1368.58 356.273 1365.16 356 1361.02 356C1358.42 356 1355.39 356.365 1351.93 357.094L1351.52 356.41C1352.43 355.089 1352.88 352.673 1352.88 349.164V340.482ZM1393.97 305.346C1393.97 298.874 1393.19 294.545 1391.64 292.357C1390.14 290.124 1386.9 289.167 1381.94 289.486L1381.66 288.256C1389.18 286.023 1396.09 284.906 1402.38 284.906C1403.33 287.276 1403.81 289.874 1403.81 292.699V343.695C1403.81 347.296 1404.65 349.962 1406.34 351.693C1408.03 353.425 1411.01 354.678 1415.29 355.453L1414.75 357.094C1409.51 356.365 1405.45 356 1402.58 356C1399.75 356 1396.56 356.365 1393.01 357.094L1392.6 356.41C1393.51 355.089 1393.97 352.673 1393.97 349.164V305.346ZM1386.99 259.545C1391.32 257.038 1396.22 254.942 1401.69 253.256C1401.69 257.038 1402.31 260.775 1403.54 264.467L1402.65 265.697C1398.32 265.971 1393.81 267.178 1389.11 269.32C1387.97 266.176 1387.27 262.917 1386.99 259.545ZM1458.09 358.803C1453.3 358.803 1448.86 357.846 1444.76 355.932C1440.66 354.018 1437.24 351.465 1434.5 348.275C1431.77 345.04 1429.63 341.371 1428.08 337.27C1426.53 333.122 1425.75 328.816 1425.75 324.35C1425.75 317.969 1426.69 312.25 1428.56 307.191C1430.43 302.133 1433.02 298.008 1436.35 294.818C1439.68 291.583 1443.55 289.122 1447.97 287.436C1452.44 285.749 1457.31 284.906 1462.6 284.906C1468.43 284.906 1474.45 285.977 1480.65 288.119L1476.2 304.867L1473.67 304.184C1474.18 299.398 1474.04 295.297 1473.26 291.879C1468.16 290.375 1463.53 289.623 1459.39 289.623C1451.37 289.623 1445.53 292.243 1441.89 297.484C1438.24 302.68 1436.42 310.382 1436.42 320.59C1436.42 330.115 1438.63 338.044 1443.05 344.379C1447.51 350.714 1453.14 353.881 1459.93 353.881C1468.36 353.881 1475.22 351.238 1480.51 345.951L1483.31 348.891C1479.89 352.445 1476.16 354.975 1472.1 356.479C1468.09 358.028 1463.42 358.803 1458.09 358.803ZM1540.53 340.072C1540.53 343.354 1539.87 346.179 1538.55 348.549C1537.23 350.919 1535.45 352.878 1533.21 354.428C1531.03 355.932 1528.45 357.025 1525.49 357.709C1522.57 358.438 1519.5 358.803 1516.26 358.803C1508.42 358.803 1501.06 357.162 1494.18 353.881C1495.05 350.873 1495.91 348.093 1496.78 345.541C1497.65 342.943 1498.53 340.551 1499.45 338.363L1501.43 339.047C1501.02 341.052 1500.81 342.989 1500.81 344.857C1500.81 346.68 1500.88 348.344 1501.02 349.848C1502.43 350.577 1503.75 351.215 1504.98 351.762C1506.21 352.263 1507.44 352.696 1508.67 353.061C1509.9 353.38 1511.23 353.63 1512.64 353.812C1514.05 353.949 1515.69 354.018 1517.56 354.018C1520.34 354.018 1522.64 353.835 1524.46 353.471C1526.29 353.106 1527.7 352.491 1528.7 351.625C1529.75 350.714 1530.48 349.529 1530.89 348.07C1531.3 346.566 1531.51 344.721 1531.51 342.533C1531.51 340.847 1531.21 339.275 1530.62 337.816C1530.07 336.312 1529.09 334.831 1527.68 333.373C1526.31 331.915 1524.46 330.411 1522.14 328.861C1519.86 327.266 1517.01 325.535 1513.6 323.666C1508.08 320.385 1503.91 317.126 1501.09 313.891C1498.26 310.609 1496.85 307.1 1496.85 303.363C1496.85 300.401 1497.46 297.781 1498.69 295.502C1499.92 293.178 1501.59 291.241 1503.68 289.691C1505.83 288.096 1508.31 286.911 1511.13 286.137C1513.96 285.316 1516.95 284.906 1520.09 284.906C1521.68 284.906 1523.35 285.02 1525.08 285.248C1526.86 285.476 1528.57 285.818 1530.21 286.273C1531.85 286.684 1533.37 287.208 1534.79 287.846C1536.25 288.438 1537.5 289.122 1538.55 289.896C1537.09 295.867 1535.31 301.107 1533.21 305.619L1531.23 304.867C1531.32 303.546 1531.39 301.928 1531.44 300.014C1531.48 298.054 1531.51 295.753 1531.51 293.109C1528.54 290.785 1524.44 289.623 1519.2 289.623C1516.6 289.623 1514.39 289.783 1512.57 290.102C1510.79 290.421 1509.36 290.967 1508.26 291.742C1507.17 292.517 1506.37 293.588 1505.87 294.955C1505.42 296.277 1505.19 297.963 1505.19 300.014C1505.19 301.518 1505.39 302.93 1505.8 304.252C1506.21 305.528 1506.94 306.804 1507.99 308.08C1509.04 309.311 1510.45 310.587 1512.23 311.908C1514.05 313.184 1516.38 314.574 1519.2 316.078C1523.62 318.493 1527.2 320.613 1529.93 322.436C1532.71 324.258 1534.88 326.059 1536.43 327.836C1538.02 329.568 1539.09 331.391 1539.64 333.305C1540.23 335.219 1540.53 337.475 1540.53 340.072Z" fill="white"/>
<defs>
<filter id="filter0_d_431_1079" x="61.4314" y="63.2583" width="296.979" height="315.591" filterUnits="userSpaceOnUse" color-interpolation-filters="sRGB">
<feFlood flood-opacity="0" result="BackgroundImageFix"/>
<feColorMatrix in="SourceAlpha" type="matrix" values="0 0 0 0 0 0 0 0 0 0 0 0 0 0 0 0 0 0 127 0" result="hardAlpha"/>
<feOffset dy="4"/>
<feGaussianBlur stdDeviation="2"/>
<feComposite in2="hardAlpha" operator="out"/>
<feColorMatrix type="matrix" values="0 0 0 0 0 0 0 0 0 0 0 0 0 0 0 0 0 0 0.25 0"/>
<feBlend mode="normal" in2="BackgroundImageFix" result="effect1_dropShadow_431_1079"/>
<feBlend mode="normal" in="SourceGraphic" in2="effect1_dropShadow_431_1079" result="shape"/>
</filter>
<filter id="filter1_d_431_1079" x="350.846" y="61.1782" width="300.974" height="316.099" filterUnits="userSpaceOnUse" color-interpolation-filters="sRGB">
<feFlood flood-opacity="0" result="BackgroundImageFix"/>
<feColorMatrix in="SourceAlpha" type="matrix" values="0 0 0 0 0 0 0 0 0 0 0 0 0 0 0 0 0 0 127 0" result="hardAlpha"/>
<feOffset dy="4"/>
<feGaussianBlur stdDeviation="2"/>
<feComposite in2="hardAlpha" operator="out"/>
<feColorMatrix type="matrix" values="0 0 0 0 0 0 0 0 0 0 0 0 0 0 0 0 0 0 0.25 0"/>
<feBlend mode="normal" in2="BackgroundImageFix" result="effect1_dropShadow_431_1079"/>
<feBlend mode="normal" in="SourceGraphic" in2="effect1_dropShadow_431_1079" result="shape"/>
</filter>
<filter id="filter2_d_431_1079" x="180.713" y="144.474" width="349.697" height="144.904" filterUnits="userSpaceOnUse" color-interpolation-filters="sRGB">
<feFlood flood-opacity="0" result="BackgroundImageFix"/>
<feColorMatrix in="SourceAlpha" type="matrix" values="0 0 0 0 0 0 0 0 0 0 0 0 0 0 0 0 0 0 127 0" result="hardAlpha"/>
<feOffset dy="4"/>
<feGaussianBlur stdDeviation="2"/>
<feComposite in2="hardAlpha" operator="out"/>
<feColorMatrix type="matrix" values="0 0 0 0 0 0 0 0 0 0 0 0 0 0 0 0 0 0 0.25 0"/>
<feBlend mode="normal" in2="BackgroundImageFix" result="effect1_dropShadow_431_1079"/>
<feBlend mode="normal" in="SourceGraphic" in2="effect1_dropShadow_431_1079" result="shape"/>
</filter>
<linearGradient id="paint0_linear_431_1079" x1="69.0826" y1="213.902" x2="643.524" y2="210.332" gradientUnits="userSpaceOnUse">
<stop stop-color="#03A52E"/>
<stop offset="1" stop-color="#084FA7"/>
</linearGradient>
<linearGradient id="paint1_linear_431_1079" x1="69.759" y1="209.48" x2="644.2" y2="205.909" gradientUnits="userSpaceOnUse">
<stop stop-color="#00C400"/>
<stop offset="1" stop-color="#084FA7"/>
</linearGradient>
<linearGradient id="paint2_linear_431_1079" x1="68.4485" y1="203.326" x2="642.765" y2="225.442" gradientUnits="userSpaceOnUse">
<stop stop-color="#01BD0B"/>
<stop offset="1" stop-color="#0853A2"/>
</linearGradient>
</defs>
</svg>
