<svg width="797" height="678" viewBox="0 0 797 678" fill="none" xmlns="http://www.w3.org/2000/svg">
<g filter="url(#filter0_d_428_1077)">
<path d="M106.46 212.667C106.888 180.607 116.487 151.737 135.783 124.478C139.05 119.86 146.411 111.415 152.139 105.712C183.77 74.2098 226.55 59.0569 269.144 64.2666C303.401 68.4576 331.476 82.5966 356.921 108.468C363.482 115.14 368.848 121.035 368.846 121.567C368.846 121.567 337.255 146.758 333.272 149.889L323.723 140.15C298.363 113.132 256.699 103.247 221.322 115.852C188.965 127.383 162.612 158.125 155.638 192.476C149.795 221.255 153.589 246.793 167.541 272.616C172.029 280.925 174.963 284.764 183.349 293.305C199.369 309.62 215.056 318.203 235.753 321.976C271.569 328.505 305.237 318.087 326.13 294.01C340.347 277.625 348.078 257.141 349.59 235.591L395.411 240.954C394.125 254.764 391.375 268.225 386.79 281.327C381.946 295.169 374.208 310.793 364.124 321.579C352.478 334.046 340.911 345.857 325.481 354.092C284.345 376.045 230.216 376.461 188.734 355.141C161.567 341.179 136.259 315.223 122.946 287.666C109.897 260.658 106.053 243.172 106.46 212.667Z" fill="url(#paint0_linear_428_1077)"/>
</g>
<g filter="url(#filter1_d_428_1077)">
<path d="M452.3 166.647C448.685 176.069 446.407 185.662 445.4 195.703L395.846 190.376C395.846 190.376 400.916 163.928 405.922 150.965C423.852 95.2864 483.986 60.4658 540.338 61.1894C566.172 61.5218 586.368 66.5054 607.461 77.7542C667.273 109.652 698.722 177.424 686.037 247.076C684.201 257.155 677.836 275.488 672.636 285.673C663.124 304.302 657.181 312.306 641.331 327.825C628.134 340.746 625.704 342.648 613.542 349.58C565.197 377.129 508.51 375.701 463.39 345.794C449.297 336.453 440.701 329.006 432.193 318.766L425.112 310.243L462.302 282.72C462.302 282.72 466.256 287.955 471.851 293.608C477.445 299.261 485.177 304.363 487.93 306.031C518.999 324.853 553.929 326.473 585.426 310.557C601.762 302.301 620.67 282.841 629.436 265.261C643.001 238.06 644.963 205.937 634.803 177.38C624.922 149.602 604.585 127.715 577.992 116.237C566.608 111.324 557.751 109.685 540.243 109.256C498.198 108.223 466.872 128.667 452.3 166.647Z" fill="url(#paint1_linear_428_1077)"/>
</g>
<g filter="url(#filter2_d_428_1077)">
<path d="M544.021 222.627C523.635 242.564 503.045 247.127 455.123 242.33C435.088 240.323 415.068 238.521 395.056 236.581C379.909 235.113 364.767 233.567 349.628 231.795C332.261 230.414 314.271 226.597 297.28 231.154C285.06 234.427 277.093 246.998 273.246 258.135C268.281 272.514 266.695 275 260.23 278.53C249.772 284.241 237.464 281.18 229.855 270.975C223.621 262.615 224.389 251.09 232.403 232.727C243.378 207.584 262.274 192.32 289.459 186.637C303.38 183.728 319.59 184.836 333.469 186.422C349.583 187.531 372.521 190.697 396.635 193.68C446.922 199.899 502.327 205.316 511.64 189.601C520.521 174.614 518.633 161.267 529.497 150.615C538.405 141.882 553.334 142.66 562.137 151.695C570.357 160.079 566.936 174.315 565.257 179.981C559.181 197.202 555.793 209.31 544.021 222.627Z" fill="url(#paint2_linear_428_1077)"/>
</g>
<line x1="4" y1="426.999" x2="793" y2="426.999" stroke="black" stroke-width="8" stroke-linecap="round"/>
<path d="M129.875 451.749C135.208 451.666 139.583 452.624 143 454.624C146.5 456.624 149.333 458.999 151.5 461.749C153.667 464.499 155.333 467.291 156.5 470.124C157.667 472.874 158.583 475.041 159.25 476.624C159.417 477.041 159.75 477.582 160.25 478.249C160.667 478.832 161.25 479.541 162 480.374C162.833 481.124 163.875 481.999 165.125 482.999C162.542 483.082 160.25 483.166 158.25 483.249C156.25 483.249 154.542 483.291 153.125 483.374C151.542 483.457 150.125 483.541 148.875 483.624C147.625 483.707 146.083 483.832 144.25 483.999C142.583 484.166 140.542 484.332 138.125 484.499C135.708 484.666 132.75 484.916 129.25 485.249C131.333 482.749 132.958 480.541 134.125 478.624C135.375 476.624 136.292 474.874 136.875 473.374C137.542 471.791 137.917 470.416 138 469.249C138.167 468.082 138.125 467.082 137.875 466.249C137.375 464.332 136.083 462.957 134 462.124C128 460.457 122.75 461.791 118.25 466.124C113.833 470.374 110.667 477.374 108.75 487.124C107.833 491.957 106.958 496.999 106.125 502.249C105.375 507.416 105.083 512.166 105.25 516.499C105.417 520.749 106.25 524.207 107.75 526.874C109.25 529.541 111.833 530.791 115.5 530.624C119.083 530.457 122.125 529.874 124.625 528.874C127.125 527.791 129.125 526.541 130.625 525.124C132.125 523.624 133.167 522.041 133.75 520.374C134.417 518.624 134.667 516.999 134.5 515.499C134.167 514.332 133.292 513.082 131.875 511.749C130.625 510.582 128.75 509.291 126.25 507.874C123.75 506.374 120.167 504.832 115.5 503.249C119.917 502.999 123.542 502.832 126.375 502.749C129.292 502.582 131.583 502.416 133.25 502.249C135.25 502.082 136.792 501.957 137.875 501.874C138.875 501.791 140.333 501.707 142.25 501.624C143.917 501.541 146.042 501.499 148.625 501.499C151.292 501.499 154.625 501.457 158.625 501.374C157.125 502.874 155.958 504.249 155.125 505.499C154.708 506.166 154.333 506.749 154 507.249C153.667 508.082 153.542 509.791 153.625 512.374C153.625 514.541 153.792 517.749 154.125 521.999C154.458 526.166 155.083 531.874 156 539.124L139.375 541.374L140.125 524.499C138.208 529.082 135.792 532.499 132.875 534.749C130.042 536.999 127.333 538.582 124.75 539.499C121.667 540.582 118.458 541.082 115.125 540.999C110.792 540.582 106.458 539.582 102.125 537.999C97.7917 536.416 93.9583 533.999 90.625 530.749C87.2917 527.416 84.7083 523.124 82.875 517.874C81.125 512.624 80.5833 506.124 81.25 498.374C82 490.624 83.8333 483.874 86.75 478.124C89.75 472.291 93.4583 467.457 97.875 463.624C102.292 459.791 107.25 456.916 112.75 454.999C118.333 452.999 124.042 451.916 129.875 451.749ZM163.875 482.124C165.458 482.207 166.875 482.249 168.125 482.249C169.458 482.166 170.583 482.082 171.5 481.999C172.583 481.916 173.542 481.832 174.375 481.749C175.625 481.582 176.917 481.374 178.25 481.124C179.417 480.957 180.625 480.749 181.875 480.499C183.208 480.166 184.5 479.791 185.75 479.374C185.25 480.624 184.833 481.707 184.5 482.624C184.167 483.541 183.917 484.332 183.75 484.999C183.5 485.749 183.375 486.374 183.375 486.874C183.292 487.457 183.25 488.166 183.25 488.999C183.167 490.416 183.167 492.707 183.25 495.874C187.583 492.124 191.208 489.207 194.125 487.124C197.125 485.041 199.5 483.416 201.25 482.249C203.333 480.916 204.958 480.041 206.125 479.624C209.208 479.124 211.917 479.832 214.25 481.749C215.25 482.582 216.208 483.707 217.125 485.124C218.042 486.457 218.833 488.249 219.5 490.499C220.167 492.749 220.667 495.457 221 498.624C221.333 501.707 221.375 505.416 221.125 509.749C219.375 509.916 217.792 510.082 216.375 510.249C215.042 510.416 213.917 510.541 213 510.624C211.917 510.791 210.917 510.874 210 510.874L206.625 511.249C205.458 511.416 204 511.582 202.25 511.749C200.583 511.832 198.542 511.999 196.125 512.249C199.625 509.416 201.875 506.957 202.875 504.874C203.958 502.707 204.417 500.916 204.25 499.499C204.083 497.916 203.333 496.541 202 495.374C200.417 494.457 198.708 494.124 196.875 494.374C195.292 494.541 193.458 495.249 191.375 496.499C189.292 497.749 187.083 500.082 184.75 503.499C184.917 508.832 185.083 513.249 185.25 516.749C185.5 520.249 185.708 523.082 185.875 525.249C186.125 527.749 186.333 529.707 186.5 531.124C186.75 532.374 187.25 533.707 188 535.124C188.583 536.291 189.417 537.582 190.5 538.999C191.583 540.416 193 541.832 194.75 543.249C191.083 543.082 188.083 543.082 185.75 543.249C184.333 543.332 183.083 543.416 182 543.499C180.833 543.666 179.583 543.832 178.25 543.999C177.083 544.166 175.708 544.332 174.125 544.499C172.625 544.749 170.958 544.999 169.125 545.249C169.792 544.332 170.333 543.249 170.75 541.999C171.167 540.832 171.5 539.707 171.75 538.624C172.083 537.374 172.333 536.082 172.5 534.749C172.583 533.582 172.625 531.832 172.625 529.499C172.708 527.166 172.667 524.541 172.5 521.624C172.417 518.624 172.292 515.541 172.125 512.374C171.958 509.124 171.75 506.082 171.5 503.249C171.25 500.416 170.958 497.957 170.625 495.874C170.375 493.707 170.083 492.207 169.75 491.374C169.333 490.374 168.833 489.374 168.25 488.374C167.75 487.457 167.125 486.499 166.375 485.499C165.625 484.416 164.792 483.291 163.875 482.124ZM235.75 491.374C236.167 490.874 236.417 489.957 236.5 488.624C236.667 487.207 237 485.624 237.5 483.874C238.083 482.124 239.042 480.291 240.375 478.374C241.708 476.457 243.875 474.666 246.875 472.999C249.792 471.332 252.625 470.332 255.375 469.999C258.125 469.666 260.75 469.791 263.25 470.374C265.75 470.957 268.083 471.874 270.25 473.124C272.5 474.374 274.542 475.749 276.375 477.249C277.625 478.249 278.625 479.707 279.375 481.624C280.125 483.457 280.708 485.541 281.125 487.874C281.542 490.207 281.833 492.666 282 495.249C282.25 497.749 282.417 500.207 282.5 502.624C282.583 504.957 282.625 507.124 282.625 509.124C282.708 511.041 282.875 512.624 283.125 513.874C283.458 515.707 284.042 517.291 284.875 518.624C285.708 519.874 286.625 520.957 287.625 521.874C288.625 522.707 289.625 523.374 290.625 523.874C291.625 524.374 292.5 524.749 293.25 524.999C293.75 525.249 294.208 525.416 294.625 525.499C295.458 525.832 296.042 525.832 296.375 525.499C295.875 526.666 295.417 527.666 295 528.499C294.583 529.332 294.25 530.041 294 530.624C293.667 531.291 293.375 531.832 293.125 532.249C292.875 532.749 292.583 533.207 292.25 533.624C292 534.041 291.667 534.499 291.25 534.999C290.833 535.499 290.417 536.041 290 536.624C288.917 536.207 287.875 535.707 286.875 535.124C285.958 534.541 285.125 533.999 284.375 533.499C283.458 532.916 282.625 532.332 281.875 531.749C281.125 531.166 280.417 530.499 279.75 529.749C279.167 529.082 278.542 528.374 277.875 527.624C277.292 526.874 276.792 526.041 276.375 525.124C275.875 526.207 274.667 527.749 272.75 529.749C270.917 531.749 268.5 533.582 265.5 535.249C262.5 536.832 259 537.957 255 538.624C251.083 539.291 246.75 538.832 242 537.249C239.917 536.582 237.958 535.624 236.125 534.374C234.292 533.041 232.708 531.457 231.375 529.624C230.125 527.791 229.208 525.707 228.625 523.374C228.125 520.957 228.167 518.291 228.75 515.374C229.333 512.457 230.375 509.999 231.875 507.999C233.375 505.999 235.167 504.374 237.25 503.124C239.333 501.874 241.667 500.916 244.25 500.249C246.833 499.582 249.5 499.124 252.25 498.874C254.417 498.791 256.583 498.916 258.75 499.249C260.583 499.582 262.5 500.207 264.5 501.124C266.5 501.957 268.208 503.249 269.625 504.999C269.542 500.582 269.375 497.082 269.125 494.499C268.958 491.832 268.792 489.791 268.625 488.374C268.292 486.707 268 485.541 267.75 484.874C267.333 484.291 266.875 483.624 266.375 482.874C265.958 482.124 265.417 481.457 264.75 480.874C264.083 480.207 263.25 479.666 262.25 479.249C261.25 478.832 260.083 478.666 258.75 478.749C257.333 478.832 256.208 479.207 255.375 479.874C254.542 480.541 253.875 481.332 253.375 482.249C252.958 483.082 252.708 483.999 252.625 484.999C252.542 485.999 252.583 486.874 252.75 487.624C252.917 488.124 253.167 488.666 253.5 489.249C253.833 489.749 254.292 490.291 254.875 490.874C255.458 491.457 256.25 491.957 257.25 492.374C255.333 492.624 253.625 492.832 252.125 492.999C250.625 493.082 249.333 493.207 248.25 493.374C247 493.541 245.917 493.666 245 493.749C244.083 493.832 243 493.999 241.75 494.249C240.667 494.416 239.333 494.624 237.75 494.874C236.167 495.124 234.333 495.457 232.25 495.874C232.75 495.291 233.208 494.749 233.625 494.249C234.042 493.666 234.417 493.166 234.75 492.749C235.083 492.249 235.417 491.791 235.75 491.374ZM254.5 506.249C253 506.332 251.5 506.707 250 507.374C248.5 507.957 247.167 508.832 246 509.999C244.833 511.082 243.833 512.374 243 513.874C242.25 515.291 241.875 516.874 241.875 518.624C241.875 520.374 242.292 521.916 243.125 523.249C244.042 524.499 245.208 525.541 246.625 526.374C248.125 527.207 249.708 527.707 251.375 527.874C253.125 528.041 254.833 527.874 256.5 527.374C258.083 526.791 259.583 525.874 261 524.624C262.417 523.291 263.625 521.874 264.625 520.374C265.625 518.791 266.333 517.249 266.75 515.749C267.167 514.166 267.208 512.874 266.875 511.874C266.208 509.707 264.708 508.207 262.375 507.374C260.042 506.457 257.417 506.082 254.5 506.249ZM350.25 470.624C349.5 472.457 348.833 474.124 348.25 475.624C347.75 477.124 347.292 478.457 346.875 479.624C346.458 480.957 346.083 482.124 345.75 483.124C345.417 484.291 345.042 485.624 344.625 487.124C344.208 488.457 343.667 490.124 343 492.124C342.417 494.041 341.708 496.332 340.875 498.999C340.208 494.999 339 491.832 337.25 489.499C335.5 487.082 333.708 485.207 331.875 483.874C329.708 482.374 327.375 481.291 324.875 480.624C320.375 479.874 317.125 479.957 315.125 480.874C313.125 481.791 311.792 482.957 311.125 484.374C310.792 484.957 310.417 485.707 310 486.624C309.667 487.457 309.375 488.332 309.125 489.249C308.958 490.166 308.917 491.082 309 491.999C309.083 492.916 309.458 493.666 310.125 494.249C310.542 494.666 311.625 495.249 313.375 495.999C315.125 496.666 317.208 497.457 319.625 498.374C322.125 499.207 324.75 500.124 327.5 501.124C330.333 502.124 333 503.124 335.5 504.124C338 505.124 340.167 506.124 342 507.124C343.833 508.124 345.042 509.041 345.625 509.874C346.125 510.707 346.667 511.832 347.25 513.249C347.917 514.582 348.375 516.082 348.625 517.749C348.958 519.332 349.042 520.999 348.875 522.749C348.792 524.416 348.333 526.082 347.5 527.749C346.667 529.416 345.333 530.957 343.5 532.374C341.75 533.791 339.375 534.957 336.375 535.874C332.875 536.957 329.5 537.249 326.25 536.749C323 536.249 320 535.499 317.25 534.499C314.583 533.499 312.25 532.541 310.25 531.624C308.25 530.624 306.833 530.207 306 530.374C305.083 530.541 304.042 530.999 302.875 531.749C301.708 532.499 300.583 533.291 299.5 534.124C298.5 534.874 297.625 535.582 296.875 536.249C296.125 536.832 295.75 537.041 295.75 536.874C295.75 536.707 295.875 536.207 296.125 535.374C296.458 534.541 296.792 533.541 297.125 532.374C297.542 531.124 297.917 529.791 298.25 528.374C298.667 526.874 298.958 525.457 299.125 524.124C299.292 523.041 299.5 521.707 299.75 520.124C299.917 518.707 300.125 516.999 300.375 514.999C300.708 512.916 301.083 510.416 301.5 507.499C301.917 509.666 302.5 511.541 303.25 513.124C304.083 514.707 304.875 516.082 305.625 517.249C306.542 518.582 307.417 519.707 308.25 520.624C309.5 521.791 310.958 522.874 312.625 523.874C314.375 524.874 316.125 525.749 317.875 526.499C319.625 527.166 321.292 527.582 322.875 527.749C324.458 527.916 325.792 527.749 326.875 527.249C327.958 526.749 328.875 525.832 329.625 524.499C330.458 523.166 331.042 521.707 331.375 520.124C331.708 518.541 331.833 517.041 331.75 515.624C331.667 514.124 331.292 512.916 330.625 511.999C330.125 511.416 328.958 510.666 327.125 509.749C325.375 508.832 323.25 507.832 320.75 506.749C318.333 505.666 315.75 504.541 313 503.374C310.333 502.207 307.792 501.041 305.375 499.874C303.042 498.624 301.083 497.457 299.5 496.374C298 495.207 297.167 494.166 297 493.249C296.833 491.916 296.708 490.457 296.625 488.874C296.542 487.207 296.625 485.582 296.875 483.999C297.208 482.332 297.792 480.749 298.625 479.249C299.542 477.749 300.875 476.499 302.625 475.499C303.792 474.832 305.333 474.332 307.25 473.999C309.167 473.666 311.292 473.499 313.625 473.499C315.958 473.416 318.375 473.499 320.875 473.749C323.375 473.916 325.75 474.166 328 474.499C330.333 474.749 332.417 475.082 334.25 475.499C336.167 475.916 337.625 476.291 338.625 476.624C339.792 477.041 341.042 477.082 342.375 476.749C343.542 476.499 344.792 475.957 346.125 475.124C347.458 474.291 348.833 472.791 350.25 470.624ZM409.875 470.624C409.125 472.457 408.458 474.124 407.875 475.624C407.375 477.124 406.917 478.457 406.5 479.624C406.083 480.957 405.708 482.124 405.375 483.124C405.042 484.291 404.667 485.624 404.25 487.124C403.833 488.457 403.292 490.124 402.625 492.124C402.042 494.041 401.333 496.332 400.5 498.999C399.833 494.999 398.625 491.832 396.875 489.499C395.125 487.082 393.333 485.207 391.5 483.874C389.333 482.374 387 481.291 384.5 480.624C380 479.874 376.75 479.957 374.75 480.874C372.75 481.791 371.417 482.957 370.75 484.374C370.417 484.957 370.042 485.707 369.625 486.624C369.292 487.457 369 488.332 368.75 489.249C368.583 490.166 368.542 491.082 368.625 491.999C368.708 492.916 369.083 493.666 369.75 494.249C370.167 494.666 371.25 495.249 373 495.999C374.75 496.666 376.833 497.457 379.25 498.374C381.75 499.207 384.375 500.124 387.125 501.124C389.958 502.124 392.625 503.124 395.125 504.124C397.625 505.124 399.792 506.124 401.625 507.124C403.458 508.124 404.667 509.041 405.25 509.874C405.75 510.707 406.292 511.832 406.875 513.249C407.542 514.582 408 516.082 408.25 517.749C408.583 519.332 408.667 520.999 408.5 522.749C408.417 524.416 407.958 526.082 407.125 527.749C406.292 529.416 404.958 530.957 403.125 532.374C401.375 533.791 399 534.957 396 535.874C392.5 536.957 389.125 537.249 385.875 536.749C382.625 536.249 379.625 535.499 376.875 534.499C374.208 533.499 371.875 532.541 369.875 531.624C367.875 530.624 366.458 530.207 365.625 530.374C364.708 530.541 363.667 530.999 362.5 531.749C361.333 532.499 360.208 533.291 359.125 534.124C358.125 534.874 357.25 535.582 356.5 536.249C355.75 536.832 355.375 537.041 355.375 536.874C355.375 536.707 355.5 536.207 355.75 535.374C356.083 534.541 356.417 533.541 356.75 532.374C357.167 531.124 357.542 529.791 357.875 528.374C358.292 526.874 358.583 525.457 358.75 524.124C358.917 523.041 359.125 521.707 359.375 520.124C359.542 518.707 359.75 516.999 360 514.999C360.333 512.916 360.708 510.416 361.125 507.499C361.542 509.666 362.125 511.541 362.875 513.124C363.708 514.707 364.5 516.082 365.25 517.249C366.167 518.582 367.042 519.707 367.875 520.624C369.125 521.791 370.583 522.874 372.25 523.874C374 524.874 375.75 525.749 377.5 526.499C379.25 527.166 380.917 527.582 382.5 527.749C384.083 527.916 385.417 527.749 386.5 527.249C387.583 526.749 388.5 525.832 389.25 524.499C390.083 523.166 390.667 521.707 391 520.124C391.333 518.541 391.458 517.041 391.375 515.624C391.292 514.124 390.917 512.916 390.25 511.999C389.75 511.416 388.583 510.666 386.75 509.749C385 508.832 382.875 507.832 380.375 506.749C377.958 505.666 375.375 504.541 372.625 503.374C369.958 502.207 367.417 501.041 365 499.874C362.667 498.624 360.708 497.457 359.125 496.374C357.625 495.207 356.792 494.166 356.625 493.249C356.458 491.916 356.333 490.457 356.25 488.874C356.167 487.207 356.25 485.582 356.5 483.999C356.833 482.332 357.417 480.749 358.25 479.249C359.167 477.749 360.5 476.499 362.25 475.499C363.417 474.832 364.958 474.332 366.875 473.999C368.792 473.666 370.917 473.499 373.25 473.499C375.583 473.416 378 473.499 380.5 473.749C383 473.916 385.375 474.166 387.625 474.499C389.958 474.749 392.042 475.082 393.875 475.499C395.792 475.916 397.25 476.291 398.25 476.624C399.417 477.041 400.667 477.082 402 476.749C403.167 476.499 404.417 475.957 405.75 475.124C407.083 474.291 408.458 472.791 409.875 470.624ZM413.125 482.124C414.708 482.207 416.125 482.249 417.375 482.249C418.708 482.166 419.833 482.082 420.75 481.999C421.833 481.916 422.792 481.832 423.625 481.749C424.875 481.582 426.167 481.374 427.5 481.124C428.667 480.957 429.875 480.749 431.125 480.499C432.458 480.166 433.75 479.791 435 479.374C434.5 480.624 434.083 481.707 433.75 482.624C433.417 483.541 433.167 484.332 433 484.999C432.75 485.749 432.625 486.374 432.625 486.874C432.542 487.457 432.5 488.166 432.5 488.999C432.417 490.416 432.417 492.707 432.5 495.874C436.833 492.124 440.458 489.207 443.375 487.124C446.375 485.041 448.75 483.416 450.5 482.249C452.583 480.916 454.208 480.041 455.375 479.624C458.458 479.124 461.167 479.832 463.5 481.749C464.5 482.582 465.458 483.707 466.375 485.124C467.292 486.457 468.083 488.249 468.75 490.499C469.417 492.749 469.917 495.457 470.25 498.624C470.583 501.707 470.625 505.416 470.375 509.749C468.625 509.916 467.042 510.082 465.625 510.249C464.292 510.416 463.167 510.541 462.25 510.624C461.167 510.791 460.167 510.874 459.25 510.874L455.875 511.249C454.708 511.416 453.25 511.582 451.5 511.749C449.833 511.832 447.792 511.999 445.375 512.249C448.875 509.416 451.125 506.957 452.125 504.874C453.208 502.707 453.667 500.916 453.5 499.499C453.333 497.916 452.583 496.541 451.25 495.374C449.667 494.457 447.958 494.124 446.125 494.374C444.542 494.541 442.708 495.249 440.625 496.499C438.542 497.749 436.333 500.082 434 503.499C434.167 508.832 434.333 513.249 434.5 516.749C434.75 520.249 434.958 523.082 435.125 525.249C435.375 527.749 435.583 529.707 435.75 531.124C436 532.374 436.5 533.707 437.25 535.124C437.833 536.291 438.667 537.582 439.75 538.999C440.833 540.416 442.25 541.832 444 543.249C440.333 543.082 437.333 543.082 435 543.249C433.583 543.332 432.333 543.416 431.25 543.499C430.083 543.666 428.833 543.832 427.5 543.999C426.333 544.166 424.958 544.332 423.375 544.499C421.875 544.749 420.208 544.999 418.375 545.249C419.042 544.332 419.583 543.249 420 541.999C420.417 540.832 420.75 539.707 421 538.624C421.333 537.374 421.583 536.082 421.75 534.749C421.833 533.582 421.875 531.832 421.875 529.499C421.958 527.166 421.917 524.541 421.75 521.624C421.667 518.624 421.542 515.541 421.375 512.374C421.208 509.124 421 506.082 420.75 503.249C420.5 500.416 420.208 497.957 419.875 495.874C419.625 493.707 419.333 492.207 419 491.374C418.583 490.374 418.083 489.374 417.5 488.374C417 487.457 416.375 486.499 415.625 485.499C414.875 484.416 414.042 483.291 413.125 482.124ZM509.125 485.999C511.292 485.999 513.542 486.416 515.875 487.249C518.208 487.999 520.458 488.999 522.625 490.249C524.792 491.416 526.75 492.707 528.5 494.124C530.333 495.457 531.833 496.749 533 497.999C535.083 500.249 536.5 503.291 537.25 507.124C538.083 510.874 538.25 514.749 537.75 518.749C537.25 522.666 536.083 526.374 534.25 529.874C532.417 533.374 529.875 535.957 526.625 537.624C524.292 538.791 522 539.707 519.75 540.374C517.5 541.041 515.333 541.541 513.25 541.874C511.167 542.207 509.208 542.374 507.375 542.374C505.542 542.374 503.958 542.332 502.625 542.249C500.125 542.082 497.5 541.207 494.75 539.624C492.083 538.041 489.542 536.082 487.125 533.749C484.792 531.416 482.792 528.874 481.125 526.124C479.458 523.291 478.458 520.624 478.125 518.124C477.625 514.707 477.542 511.124 477.875 507.374C478.208 503.624 479.417 500.166 481.5 496.999C483.667 493.832 486.917 491.207 491.25 489.124C495.667 487.041 501.625 485.999 509.125 485.999ZM505 534.499C505.917 534.666 507.167 534.457 508.75 533.874C510.333 533.207 511.875 532.166 513.375 530.749C514.958 529.332 516.333 527.541 517.5 525.374C518.75 523.124 519.5 520.416 519.75 517.249C520 514.166 520 511.332 519.75 508.749C519.583 506.166 519.208 503.916 518.625 501.999C518.042 499.999 517.375 498.374 516.625 497.124C515.875 495.874 515.083 494.999 514.25 494.499C512.833 493.749 511.125 493.166 509.125 492.749C507.125 492.249 505.417 492.332 504 492.999C503.333 493.332 502.5 494.041 501.5 495.124C500.5 496.207 499.5 497.582 498.5 499.249C497.5 500.832 496.583 502.666 495.75 504.749C495 506.832 494.458 508.999 494.125 511.249C493.792 513.499 493.708 515.916 493.875 518.499C494.125 521.082 494.667 523.541 495.5 525.874C496.333 528.124 497.5 530.082 499 531.749C500.583 533.332 502.583 534.249 505 534.499ZM577.25 485.999C579.417 485.999 581.667 486.416 584 487.249C586.333 487.999 588.583 488.999 590.75 490.249C592.917 491.416 594.875 492.707 596.625 494.124C598.458 495.457 599.958 496.749 601.125 497.999C603.208 500.249 604.625 503.291 605.375 507.124C606.208 510.874 606.375 514.749 605.875 518.749C605.375 522.666 604.208 526.374 602.375 529.874C600.542 533.374 598 535.957 594.75 537.624C592.417 538.791 590.125 539.707 587.875 540.374C585.625 541.041 583.458 541.541 581.375 541.874C579.292 542.207 577.333 542.374 575.5 542.374C573.667 542.374 572.083 542.332 570.75 542.249C568.25 542.082 565.625 541.207 562.875 539.624C560.208 538.041 557.667 536.082 555.25 533.749C552.917 531.416 550.917 528.874 549.25 526.124C547.583 523.291 546.583 520.624 546.25 518.124C545.75 514.707 545.667 511.124 546 507.374C546.333 503.624 547.542 500.166 549.625 496.999C551.792 493.832 555.042 491.207 559.375 489.124C563.792 487.041 569.75 485.999 577.25 485.999ZM573.125 534.499C574.042 534.666 575.292 534.457 576.875 533.874C578.458 533.207 580 532.166 581.5 530.749C583.083 529.332 584.458 527.541 585.625 525.374C586.875 523.124 587.625 520.416 587.875 517.249C588.125 514.166 588.125 511.332 587.875 508.749C587.708 506.166 587.333 503.916 586.75 501.999C586.167 499.999 585.5 498.374 584.75 497.124C584 495.874 583.208 494.999 582.375 494.499C580.958 493.749 579.25 493.166 577.25 492.749C575.25 492.249 573.542 492.332 572.125 492.999C571.458 493.332 570.625 494.041 569.625 495.124C568.625 496.207 567.625 497.582 566.625 499.249C565.625 500.832 564.708 502.666 563.875 504.749C563.125 506.832 562.583 508.999 562.25 511.249C561.917 513.499 561.833 515.916 562 518.499C562.25 521.082 562.792 523.541 563.625 525.874C564.458 528.124 565.625 530.082 567.125 531.749C568.708 533.332 570.708 534.249 573.125 534.499ZM610.375 463.249C612.875 463.499 614.958 463.707 616.625 463.874C618.375 464.041 619.792 464.166 620.875 464.249C622.125 464.332 623.125 464.374 623.875 464.374C624.625 464.457 625.625 464.457 626.875 464.374C627.958 464.291 629.375 464.207 631.125 464.124C632.875 463.957 635.083 463.707 637.75 463.374C637.167 464.207 636.708 464.957 636.375 465.624C636.042 466.207 635.75 466.749 635.5 467.249L634.75 468.749C634.583 469.249 634.417 469.749 634.25 470.249C634.083 470.666 633.917 471.166 633.75 471.749C633.667 472.332 633.583 472.957 633.5 473.624H652.75L651 483.749L633.375 482.749C632.958 486.999 632.667 490.291 632.5 492.624C632.333 494.957 632.167 496.666 632 497.749L631.75 499.999C631.5 503.166 631.25 506.624 631 510.374C630.75 514.041 630.667 517.457 630.75 520.624C630.833 523.791 631.125 526.457 631.625 528.624C632.125 530.707 633 531.749 634.25 531.749C635.5 531.749 636.667 531.416 637.75 530.749C638.833 530.082 639.75 529.291 640.5 528.374C641.333 527.457 641.958 526.541 642.375 525.624C642.792 524.624 643 523.874 643 523.374C643 522.874 642.875 522.291 642.625 521.624C642.208 520.374 641.458 518.791 640.375 516.874C642.792 517.457 644.917 518.041 646.75 518.624C647.667 518.957 648.5 519.291 649.25 519.624C650.083 519.957 651.042 520.332 652.125 520.749C653.042 521.166 654.208 521.666 655.625 522.249C657.042 522.832 658.708 523.541 660.625 524.374C658.792 524.707 657.458 525.249 656.625 525.999C656.125 526.332 655.75 526.707 655.5 527.124C654.917 528.041 654.25 529.291 653.5 530.874C652.75 532.374 651.625 533.874 650.125 535.374C648.625 536.874 646.583 538.207 644 539.374C641.5 540.541 638.125 541.207 633.875 541.374C629.458 541.541 626.083 540.791 623.75 539.124C621.5 537.457 619.833 535.541 618.75 533.374C617.75 531.124 617.167 528.916 617 526.749C616.833 524.582 616.708 523.124 616.625 522.374C616.542 521.624 616.542 519.749 616.625 516.749C616.708 513.749 616.833 510.457 617 506.874C617.167 503.207 617.333 499.707 617.5 496.374C617.667 492.957 617.75 490.457 617.75 488.874C617.75 488.041 617.792 487.166 617.875 486.249C617.875 485.499 617.875 484.707 617.875 483.874C617.958 482.957 618 482.082 618 481.249L599.875 481.124L599.125 473.999L617.375 474.499C617.208 473.582 617 472.749 616.75 471.999C616.583 471.166 616.417 470.499 616.25 469.999C616 469.416 615.75 468.916 615.5 468.499C615.167 468.082 614.792 467.624 614.375 467.124C613.958 466.707 613.417 466.166 612.75 465.499C612.083 464.832 611.292 464.082 610.375 463.249ZM710.625 470.624C709.875 472.457 709.208 474.124 708.625 475.624C708.125 477.124 707.667 478.457 707.25 479.624C706.833 480.957 706.458 482.124 706.125 483.124C705.792 484.291 705.417 485.624 705 487.124C704.583 488.457 704.042 490.124 703.375 492.124C702.792 494.041 702.083 496.332 701.25 498.999C700.583 494.999 699.375 491.832 697.625 489.499C695.875 487.082 694.083 485.207 692.25 483.874C690.083 482.374 687.75 481.291 685.25 480.624C680.75 479.874 677.5 479.957 675.5 480.874C673.5 481.791 672.167 482.957 671.5 484.374C671.167 484.957 670.792 485.707 670.375 486.624C670.042 487.457 669.75 488.332 669.5 489.249C669.333 490.166 669.292 491.082 669.375 491.999C669.458 492.916 669.833 493.666 670.5 494.249C670.917 494.666 672 495.249 673.75 495.999C675.5 496.666 677.583 497.457 680 498.374C682.5 499.207 685.125 500.124 687.875 501.124C690.708 502.124 693.375 503.124 695.875 504.124C698.375 505.124 700.542 506.124 702.375 507.124C704.208 508.124 705.417 509.041 706 509.874C706.5 510.707 707.042 511.832 707.625 513.249C708.292 514.582 708.75 516.082 709 517.749C709.333 519.332 709.417 520.999 709.25 522.749C709.167 524.416 708.708 526.082 707.875 527.749C707.042 529.416 705.708 530.957 703.875 532.374C702.125 533.791 699.75 534.957 696.75 535.874C693.25 536.957 689.875 537.249 686.625 536.749C683.375 536.249 680.375 535.499 677.625 534.499C674.958 533.499 672.625 532.541 670.625 531.624C668.625 530.624 667.208 530.207 666.375 530.374C665.458 530.541 664.417 530.999 663.25 531.749C662.083 532.499 660.958 533.291 659.875 534.124C658.875 534.874 658 535.582 657.25 536.249C656.5 536.832 656.125 537.041 656.125 536.874C656.125 536.707 656.25 536.207 656.5 535.374C656.833 534.541 657.167 533.541 657.5 532.374C657.917 531.124 658.292 529.791 658.625 528.374C659.042 526.874 659.333 525.457 659.5 524.124C659.667 523.041 659.875 521.707 660.125 520.124C660.292 518.707 660.5 516.999 660.75 514.999C661.083 512.916 661.458 510.416 661.875 507.499C662.292 509.666 662.875 511.541 663.625 513.124C664.458 514.707 665.25 516.082 666 517.249C666.917 518.582 667.792 519.707 668.625 520.624C669.875 521.791 671.333 522.874 673 523.874C674.75 524.874 676.5 525.749 678.25 526.499C680 527.166 681.667 527.582 683.25 527.749C684.833 527.916 686.167 527.749 687.25 527.249C688.333 526.749 689.25 525.832 690 524.499C690.833 523.166 691.417 521.707 691.75 520.124C692.083 518.541 692.208 517.041 692.125 515.624C692.042 514.124 691.667 512.916 691 511.999C690.5 511.416 689.333 510.666 687.5 509.749C685.75 508.832 683.625 507.832 681.125 506.749C678.708 505.666 676.125 504.541 673.375 503.374C670.708 502.207 668.167 501.041 665.75 499.874C663.417 498.624 661.458 497.457 659.875 496.374C658.375 495.207 657.542 494.166 657.375 493.249C657.208 491.916 657.083 490.457 657 488.874C656.917 487.207 657 485.582 657.25 483.999C657.583 482.332 658.167 480.749 659 479.249C659.917 477.749 661.25 476.499 663 475.499C664.167 474.832 665.708 474.332 667.625 473.999C669.542 473.666 671.667 473.499 674 473.499C676.333 473.416 678.75 473.499 681.25 473.749C683.75 473.916 686.125 474.166 688.375 474.499C690.708 474.749 692.792 475.082 694.625 475.499C696.542 475.916 698 476.291 699 476.624C700.167 477.041 701.417 477.082 702.75 476.749C703.917 476.499 705.167 475.957 706.5 475.124C707.833 474.291 709.208 472.791 710.625 470.624Z" fill="black"/>
<path d="M159.156 589.968C163.531 590.093 167.156 590.186 170.031 590.249C172.969 590.249 175.344 590.249 177.156 590.249H182.125H210.062C210.188 591.499 210.281 592.718 210.344 593.905C210.469 595.03 210.531 596.03 210.531 596.905C210.531 597.968 210.5 598.936 210.438 599.811C210.375 600.686 210.281 601.624 210.156 602.624C210.031 603.499 209.906 604.436 209.781 605.436C209.656 606.436 209.438 607.468 209.125 608.53C208.25 605.155 207.062 602.593 205.562 600.843C204.125 599.093 202.656 597.811 201.156 596.999C199.406 596.061 197.562 595.561 195.625 595.499C193.062 595.624 191.062 595.843 189.625 596.155C188.188 596.468 187.062 596.905 186.25 597.468C185.438 598.03 184.812 598.686 184.375 599.436C184 600.124 183.594 600.905 183.156 601.78C182.781 602.53 182.438 603.686 182.125 605.249C181.812 606.561 181.5 608.343 181.188 610.593C180.938 612.843 180.656 615.749 180.344 619.311C182.031 618.811 183.375 618.343 184.375 617.905C185.438 617.468 186.281 617.093 186.906 616.78C187.594 616.405 188.094 616.061 188.406 615.749C188.656 615.374 189.031 614.686 189.531 613.686C189.906 612.811 190.406 611.624 191.031 610.124C191.719 608.624 192.531 606.561 193.469 603.936C193.594 606.811 193.656 609.218 193.656 611.155C193.656 613.03 193.688 614.561 193.75 615.749C193.75 617.124 193.781 618.218 193.844 619.03V622.593C193.844 623.905 193.844 625.686 193.844 627.936C193.906 630.124 194 632.905 194.125 636.28C193.375 633.968 192.688 632.155 192.062 630.843C191.5 629.468 191 628.436 190.562 627.749C190.062 626.936 189.625 626.374 189.25 626.061C188.812 625.936 188.219 625.811 187.469 625.686C186.781 625.624 185.906 625.593 184.844 625.593C183.844 625.593 182.562 625.749 181 626.061C180.812 629.499 180.781 632.28 180.906 634.405C181.094 636.468 181.344 638.061 181.656 639.186C181.969 640.499 182.344 641.436 182.781 641.999C183.344 642.561 184.469 643.03 186.156 643.405C187.844 643.718 189.75 643.843 191.875 643.78C194.062 643.655 196.281 643.28 198.531 642.655C200.781 642.03 202.781 640.999 204.531 639.561C205.844 638.374 207.25 636.874 208.75 635.061C210 633.499 211.375 631.53 212.875 629.155C214.438 626.78 215.969 623.905 217.469 620.53C217.219 623.343 217.031 625.686 216.906 627.561C216.844 629.374 216.75 630.843 216.625 631.968C216.5 633.28 216.406 634.28 216.344 634.968C216.344 635.718 216.25 636.78 216.062 638.155C215.938 639.343 215.719 640.968 215.406 643.03C215.156 645.03 214.812 647.593 214.375 650.718C211.438 650.78 208.656 650.843 206.031 650.905C203.406 650.905 201.094 650.936 199.094 650.999C196.719 651.061 194.531 651.124 192.531 651.186C190.469 651.186 188.188 651.28 185.688 651.468C183.5 651.593 180.906 651.78 177.906 652.03C174.969 652.28 171.719 652.624 168.156 653.061C168.469 648.811 168.688 644.811 168.812 641.061C169 637.249 169.125 633.905 169.188 631.03C169.25 627.655 169.25 624.53 169.188 621.655C169.5 614.468 169.375 608.655 168.812 604.218C168.25 599.78 167.594 596.936 166.844 595.686C166.469 595.249 165.938 594.718 165.25 594.093C164.688 593.593 163.906 592.999 162.906 592.311C161.906 591.624 160.656 590.843 159.156 589.968ZM274.188 620.718C273.438 620.593 272.5 620.499 271.375 620.436C270.312 620.374 269.281 620.343 268.281 620.343C267.156 620.343 265.969 620.374 264.719 620.436C263.406 620.499 262.094 620.561 260.781 620.624C259.656 620.686 258.375 620.78 256.938 620.905C255.562 620.968 254.219 621.061 252.906 621.186C253.406 620.936 253.844 620.593 254.219 620.155C254.656 619.718 255.031 619.28 255.344 618.843C255.656 618.343 255.938 617.811 256.188 617.249C256.5 616.311 256.469 615.186 256.094 613.874C255.719 612.499 255.031 611.249 254.031 610.124C253.094 608.999 251.875 608.124 250.375 607.499C248.938 606.811 247.344 606.655 245.594 607.03C243.719 607.468 242.031 608.124 240.531 608.999C239.094 609.874 237.875 611.093 236.875 612.655C235.938 614.155 235.25 616.03 234.812 618.28C234.438 620.468 234.344 623.093 234.531 626.155C234.781 629.968 235.406 632.999 236.406 635.249C237.406 637.499 238.625 639.186 240.062 640.311C241.5 641.436 243.062 642.124 244.75 642.374C246.5 642.561 248.219 642.561 249.906 642.374C251.094 642.124 252.188 641.593 253.188 640.78C254 640.093 254.75 639.093 255.438 637.78C256.125 636.468 256.438 634.655 256.375 632.343L267.812 631.874C266.5 635.561 264.906 638.499 263.031 640.686C261.156 642.811 259.344 644.468 257.594 645.655C255.531 647.03 253.469 647.968 251.406 648.468C248.844 648.905 246.562 649.093 244.562 649.03C242.562 648.905 240.75 648.593 239.125 648.093C237.5 647.593 236 646.968 234.625 646.218C233.25 645.468 231.938 644.655 230.688 643.78C229.875 643.218 228.969 642.28 227.969 640.968C226.969 639.655 226.031 638.093 225.156 636.28C224.281 634.405 223.562 632.343 223 630.093C222.438 627.843 222.219 625.53 222.344 623.155C222.469 620.718 223.031 618.28 224.031 615.843C225.031 613.405 226.625 611.061 228.812 608.811C232.125 605.436 235.656 603.249 239.406 602.249C243.219 601.186 246.812 600.905 250.188 601.405C253.562 601.843 256.562 602.811 259.188 604.311C261.812 605.811 263.656 607.436 264.719 609.186C265.781 610.936 266.562 612.28 267.062 613.218C267.625 614.093 268.031 614.78 268.281 615.28C268.594 615.718 268.844 616.061 269.031 616.311C269.281 616.499 269.625 616.78 270.062 617.155C270.375 617.468 270.75 617.811 271.188 618.186C271.562 618.499 272 618.874 272.5 619.311C273 619.749 273.562 620.218 274.188 620.718ZM297.906 611.999C299.531 611.999 301.219 612.311 302.969 612.936C304.719 613.499 306.406 614.249 308.031 615.186C309.656 616.061 311.125 617.03 312.438 618.093C313.812 619.093 314.938 620.061 315.812 620.999C317.375 622.686 318.438 624.968 319 627.843C319.625 630.655 319.75 633.561 319.375 636.561C319 639.499 318.125 642.28 316.75 644.905C315.375 647.53 313.469 649.468 311.031 650.718C309.281 651.593 307.562 652.28 305.875 652.78C304.188 653.28 302.562 653.655 301 653.905C299.438 654.155 297.969 654.28 296.594 654.28C295.219 654.28 294.031 654.249 293.031 654.186C291.156 654.061 289.188 653.405 287.125 652.218C285.125 651.03 283.219 649.561 281.406 647.811C279.656 646.061 278.156 644.155 276.906 642.093C275.656 639.968 274.906 637.968 274.656 636.093C274.281 633.53 274.219 630.843 274.469 628.03C274.719 625.218 275.625 622.624 277.188 620.249C278.812 617.874 281.25 615.905 284.5 614.343C287.812 612.78 292.281 611.999 297.906 611.999ZM294.812 648.374C295.5 648.499 296.438 648.343 297.625 647.905C298.812 647.405 299.969 646.624 301.094 645.561C302.281 644.499 303.312 643.155 304.188 641.53C305.125 639.843 305.688 637.811 305.875 635.436C306.062 633.124 306.062 630.999 305.875 629.061C305.75 627.124 305.469 625.436 305.031 623.999C304.594 622.499 304.094 621.28 303.531 620.343C302.969 619.405 302.375 618.749 301.75 618.374C300.688 617.811 299.406 617.374 297.906 617.061C296.406 616.686 295.125 616.749 294.062 617.249C293.562 617.499 292.938 618.03 292.188 618.843C291.438 619.655 290.688 620.686 289.938 621.936C289.188 623.124 288.5 624.499 287.875 626.061C287.312 627.624 286.906 629.249 286.656 630.936C286.406 632.624 286.344 634.436 286.469 636.374C286.656 638.311 287.062 640.155 287.688 641.905C288.312 643.593 289.188 645.061 290.312 646.311C291.5 647.499 293 648.186 294.812 648.374ZM326.781 643.686C327.219 641.624 327.531 639.811 327.719 638.249C327.969 636.624 328.156 635.28 328.281 634.218C328.406 632.968 328.469 631.905 328.469 631.03C328.406 629.968 328.344 628.718 328.281 627.28C328.281 625.78 328.219 624.311 328.094 622.874C328.031 621.374 327.938 620.061 327.812 618.936C327.688 617.749 327.531 616.905 327.344 616.405C327.094 615.905 326.75 615.374 326.312 614.811C325.438 613.749 324.156 612.718 322.469 611.718C323.906 611.405 325.125 611.155 326.125 610.968C327.188 610.718 328.062 610.499 328.75 610.311C329.5 610.061 330.156 609.843 330.719 609.655C331.219 609.468 331.812 609.28 332.5 609.093C333.062 608.968 333.75 608.811 334.562 608.624C335.375 608.436 336.312 608.218 337.375 607.968L337.094 616.499C339.094 614.124 341.125 612.343 343.188 611.155C345.25 609.968 347.188 609.124 349 608.624C351.062 607.999 353.094 607.686 355.094 607.686C357.594 607.811 359.906 608.218 362.031 608.905C364.219 609.593 366.094 610.405 367.656 611.343C369.281 612.218 370.594 613.155 371.594 614.155C372.594 615.155 373.188 616.03 373.375 616.78C374.125 619.218 374.312 621.468 373.938 623.53C373.562 625.53 373.062 627.499 372.438 629.436C371.875 631.311 371.375 633.186 370.938 635.061C370.562 636.936 370.719 638.968 371.406 641.155C371.656 641.718 371.906 642.28 372.156 642.843C372.406 643.343 372.719 643.843 373.094 644.343C373.469 644.843 373.906 645.249 374.406 645.561C373.719 645.499 373.031 645.468 372.344 645.468C371.656 645.405 371.031 645.343 370.469 645.28C369.781 645.218 369.156 645.155 368.594 645.093C367.969 645.03 367.125 644.999 366.062 644.999C364.25 644.999 361.438 645.093 357.625 645.28C358.188 643.968 358.625 642.874 358.938 641.999C359.312 641.061 359.625 640.311 359.875 639.749C360.125 639.061 360.312 638.53 360.438 638.155C361.188 636.343 361.625 634.28 361.75 631.968C361.938 629.655 361.781 627.311 361.281 624.936C361.094 624.124 360.781 623.155 360.344 622.03C359.906 620.905 359.312 619.811 358.562 618.749C357.875 617.686 357.031 616.78 356.031 616.03C355.094 615.28 354 614.843 352.75 614.718C351.5 614.593 350.094 614.905 348.531 615.655C347.031 616.405 345.406 617.78 343.656 619.78C342.344 621.468 341.312 623.53 340.562 625.968C339.875 628.03 339.406 630.624 339.156 633.749C338.906 636.811 339.281 640.405 340.281 644.53C339.406 644.405 338.594 644.343 337.844 644.343C337.094 644.28 336.469 644.218 335.969 644.155C335.344 644.093 334.781 644.03 334.281 643.968C333.719 643.968 333.094 643.936 332.406 643.874C331.781 643.874 331 643.874 330.062 643.874C329.125 643.811 328.031 643.749 326.781 643.686ZM405.25 611.999C406.875 611.999 408.562 612.311 410.312 612.936C412.062 613.499 413.75 614.249 415.375 615.186C417 616.061 418.469 617.03 419.781 618.093C421.156 619.093 422.281 620.061 423.156 620.999C424.719 622.686 425.781 624.968 426.344 627.843C426.969 630.655 427.094 633.561 426.719 636.561C426.344 639.499 425.469 642.28 424.094 644.905C422.719 647.53 420.812 649.468 418.375 650.718C416.625 651.593 414.906 652.28 413.219 652.78C411.531 653.28 409.906 653.655 408.344 653.905C406.781 654.155 405.312 654.28 403.938 654.28C402.562 654.28 401.375 654.249 400.375 654.186C398.5 654.061 396.531 653.405 394.469 652.218C392.469 651.03 390.562 649.561 388.75 647.811C387 646.061 385.5 644.155 384.25 642.093C383 639.968 382.25 637.968 382 636.093C381.625 633.53 381.562 630.843 381.812 628.03C382.062 625.218 382.969 622.624 384.531 620.249C386.156 617.874 388.594 615.905 391.844 614.343C395.156 612.78 399.625 611.999 405.25 611.999ZM402.156 648.374C402.844 648.499 403.781 648.343 404.969 647.905C406.156 647.405 407.312 646.624 408.438 645.561C409.625 644.499 410.656 643.155 411.531 641.53C412.469 639.843 413.031 637.811 413.219 635.436C413.406 633.124 413.406 630.999 413.219 629.061C413.094 627.124 412.812 625.436 412.375 623.999C411.938 622.499 411.438 621.28 410.875 620.343C410.312 619.405 409.719 618.749 409.094 618.374C408.031 617.811 406.75 617.374 405.25 617.061C403.75 616.686 402.469 616.749 401.406 617.249C400.906 617.499 400.281 618.03 399.531 618.843C398.781 619.655 398.031 620.686 397.281 621.936C396.531 623.124 395.844 624.499 395.219 626.061C394.656 627.624 394.25 629.249 394 630.936C393.75 632.624 393.688 634.436 393.812 636.374C394 638.311 394.406 640.155 395.031 641.905C395.656 643.593 396.531 645.061 397.656 646.311C398.844 647.499 400.344 648.186 402.156 648.374ZM430.75 609.561C432.188 609.436 433.406 609.311 434.406 609.186C435.469 609.061 436.344 608.936 437.031 608.811C437.844 608.686 438.531 608.561 439.094 608.436C439.656 608.374 440.281 608.249 440.969 608.061C441.594 607.936 442.281 607.78 443.031 607.593C443.844 607.343 444.719 607.061 445.656 606.749L445.094 618.655C446.469 616.468 448.062 614.811 449.875 613.686C451.688 612.499 453.406 611.624 455.031 611.061C456.969 610.374 458.906 609.968 460.844 609.843C462.844 609.905 464.688 610.218 466.375 610.78C467.812 611.28 469.25 612.061 470.688 613.124C472.188 614.186 473.344 615.749 474.156 617.811C476.281 615.624 478.375 613.936 480.438 612.749C482.562 611.499 484.438 610.561 486.062 609.936C488 609.249 489.812 608.843 491.5 608.718C493.75 608.655 495.812 609.03 497.688 609.843C499.625 610.655 501.312 611.686 502.75 612.936C504.188 614.124 505.344 615.405 506.219 616.78C507.094 618.093 507.594 619.249 507.719 620.249C507.906 621.624 507.812 623.405 507.438 625.593C507.062 627.718 506.625 629.905 506.125 632.155C505.625 634.343 505.156 636.374 504.719 638.249C504.344 640.061 504.188 641.343 504.25 642.093C504.438 642.718 504.875 643.468 505.562 644.343C506.188 645.093 507.094 646.03 508.281 647.155C509.531 648.218 511.312 649.468 513.625 650.905C511.625 650.843 509.844 650.78 508.281 650.718C506.781 650.655 505.5 650.561 504.438 650.436C503.188 650.311 502.094 650.218 501.156 650.155C500.406 650.155 499.5 650.093 498.438 649.968C497.562 649.905 496.406 649.811 494.969 649.686C493.594 649.561 492 649.436 490.188 649.311C490.875 649.124 491.438 648.78 491.875 648.28C492.312 647.718 492.688 647.186 493 646.686C493.312 646.061 493.562 645.374 493.75 644.624C493.875 643.999 494 642.999 494.125 641.624C494.25 640.249 494.344 638.686 494.406 636.936C494.531 635.186 494.594 633.343 494.594 631.405C494.656 629.468 494.656 627.624 494.594 625.874C494.531 624.124 494.406 622.53 494.219 621.093C494.031 619.655 493.781 618.561 493.469 617.811C493.219 617.249 492.781 616.811 492.156 616.499C491.531 616.124 490.812 615.905 490 615.843C489.188 615.718 488.375 615.749 487.562 615.936C486.75 616.061 486.031 616.311 485.406 616.686C484.844 617.124 484.094 617.718 483.156 618.468C482.344 619.155 481.281 620.093 479.969 621.28C478.656 622.468 477 623.968 475 625.78C474.812 629.718 474.656 632.905 474.531 635.343C474.469 637.718 474.406 639.53 474.344 640.78C474.281 642.28 474.25 643.311 474.25 643.874C474.188 644.374 474.219 644.843 474.344 645.28C474.469 646.218 474.844 647.093 475.469 647.905C474.719 647.718 473.906 647.593 473.031 647.53C472.219 647.468 471.469 647.405 470.781 647.343C469.969 647.28 469.156 647.249 468.344 647.249C467.656 647.249 466.906 647.28 466.094 647.343C465.406 647.405 464.562 647.499 463.562 647.624C462.562 647.686 461.469 647.78 460.281 647.905C460.781 647.593 461.188 647.218 461.5 646.78C461.812 646.343 462.062 645.936 462.25 645.561C462.5 645.124 462.688 644.718 462.812 644.343C462.875 643.968 463 643.061 463.188 641.624C463.375 640.124 463.5 638.374 463.562 636.374C463.625 634.374 463.625 632.28 463.562 630.093C463.5 627.843 463.281 625.811 462.906 623.999C462.531 622.124 461.938 620.593 461.125 619.405C460.375 618.218 459.375 617.686 458.125 617.811C456.625 617.936 455.094 618.311 453.531 618.936C452.219 619.436 450.812 620.186 449.312 621.186C447.812 622.186 446.406 623.53 445.094 625.218C444.844 629.905 444.688 633.624 444.625 636.374C444.625 639.124 444.656 641.218 444.719 642.655C444.781 644.343 444.844 645.499 444.906 646.124C444.969 646.561 445.125 646.999 445.375 647.436C445.562 647.811 445.781 648.249 446.031 648.749C446.344 649.249 446.688 649.718 447.062 650.155L432.156 649.405C432.656 649.155 433.094 648.843 433.469 648.468C433.844 648.03 434.156 647.593 434.406 647.155C434.656 646.655 434.906 646.155 435.156 645.655C435.344 645.218 435.5 644.186 435.625 642.561C435.812 640.936 435.969 639.03 436.094 636.843C436.219 634.593 436.312 632.249 436.375 629.811C436.5 627.311 436.562 624.999 436.562 622.874C436.625 620.686 436.656 618.843 436.656 617.343C436.656 615.78 436.625 614.843 436.562 614.53C436.375 613.905 436.031 613.249 435.531 612.561C435.094 612.061 434.5 611.53 433.75 610.968C433 610.343 432 609.874 430.75 609.561ZM514.094 612.093L531.344 612.28C530.344 616.093 529.594 619.343 529.094 622.03C528.656 624.718 528.375 626.968 528.25 628.78C528 630.843 527.938 632.593 528.062 634.03C528.25 635.343 528.562 636.749 529 638.249C529.375 639.499 529.938 640.936 530.688 642.561C531.438 644.186 532.438 645.811 533.688 647.436C532.938 647.186 532.125 646.999 531.25 646.874C530.375 646.749 529.562 646.655 528.812 646.593C527.938 646.53 527.062 646.53 526.188 646.593C525.312 646.655 524.344 646.749 523.281 646.874C522.406 646.999 521.344 647.155 520.094 647.343C518.844 647.53 517.531 647.78 516.156 648.093C517.094 645.28 517.812 642.843 518.312 640.78C518.875 638.718 519.281 636.999 519.531 635.624C519.781 633.999 519.938 632.686 520 631.686C520 630.436 520 629.03 520 627.468C520 625.843 520 624.28 520 622.78C520 621.28 519.969 619.968 519.906 618.843C519.844 617.655 519.719 616.905 519.531 616.593L518.594 615.655C518.219 615.343 517.656 614.905 516.906 614.343C516.219 613.718 515.281 612.968 514.094 612.093ZM520.75 597.655C522.062 596.968 523.375 596.78 524.688 597.093C526.062 597.405 527.125 597.999 527.875 598.874C528.625 599.749 528.875 600.78 528.625 601.968C528.438 603.155 527.438 604.311 525.625 605.436C523.812 606.499 522.219 606.874 520.844 606.561C519.469 606.249 518.5 605.593 517.938 604.593C517.375 603.593 517.281 602.436 517.656 601.124C518.031 599.749 519.062 598.593 520.75 597.655ZM589.469 620.718C588.719 620.593 587.781 620.499 586.656 620.436C585.594 620.374 584.562 620.343 583.562 620.343C582.438 620.343 581.25 620.374 580 620.436C578.688 620.499 577.375 620.561 576.062 620.624C574.938 620.686 573.656 620.78 572.219 620.905C570.844 620.968 569.5 621.061 568.188 621.186C568.688 620.936 569.125 620.593 569.5 620.155C569.938 619.718 570.312 619.28 570.625 618.843C570.938 618.343 571.219 617.811 571.469 617.249C571.781 616.311 571.75 615.186 571.375 613.874C571 612.499 570.312 611.249 569.312 610.124C568.375 608.999 567.156 608.124 565.656 607.499C564.219 606.811 562.625 606.655 560.875 607.03C559 607.468 557.312 608.124 555.812 608.999C554.375 609.874 553.156 611.093 552.156 612.655C551.219 614.155 550.531 616.03 550.094 618.28C549.719 620.468 549.625 623.093 549.812 626.155C550.062 629.968 550.688 632.999 551.688 635.249C552.688 637.499 553.906 639.186 555.344 640.311C556.781 641.436 558.344 642.124 560.031 642.374C561.781 642.561 563.5 642.561 565.188 642.374C566.375 642.124 567.469 641.593 568.469 640.78C569.281 640.093 570.031 639.093 570.719 637.78C571.406 636.468 571.719 634.655 571.656 632.343L583.094 631.874C581.781 635.561 580.188 638.499 578.312 640.686C576.438 642.811 574.625 644.468 572.875 645.655C570.812 647.03 568.75 647.968 566.688 648.468C564.125 648.905 561.844 649.093 559.844 649.03C557.844 648.905 556.031 648.593 554.406 648.093C552.781 647.593 551.281 646.968 549.906 646.218C548.531 645.468 547.219 644.655 545.969 643.78C545.156 643.218 544.25 642.28 543.25 640.968C542.25 639.655 541.312 638.093 540.438 636.28C539.562 634.405 538.844 632.343 538.281 630.093C537.719 627.843 537.5 625.53 537.625 623.155C537.75 620.718 538.312 618.28 539.312 615.843C540.312 613.405 541.906 611.061 544.094 608.811C547.406 605.436 550.938 603.249 554.688 602.249C558.5 601.186 562.094 600.905 565.469 601.405C568.844 601.843 571.844 602.811 574.469 604.311C577.094 605.811 578.938 607.436 580 609.186C581.062 610.936 581.844 612.28 582.344 613.218C582.906 614.093 583.312 614.78 583.562 615.28C583.875 615.718 584.125 616.061 584.312 616.311C584.562 616.499 584.906 616.78 585.344 617.155C585.656 617.468 586.031 617.811 586.469 618.186C586.844 618.499 587.281 618.874 587.781 619.311C588.281 619.749 588.844 620.218 589.469 620.718ZM629.406 600.468C628.844 601.843 628.344 603.093 627.906 604.218C627.531 605.343 627.188 606.343 626.875 607.218C626.562 608.218 626.281 609.093 626.031 609.843C625.781 610.718 625.5 611.718 625.188 612.843C624.875 613.843 624.469 615.093 623.969 616.593C623.531 618.03 623 619.749 622.375 621.749C621.875 618.749 620.969 616.374 619.656 614.624C618.344 612.811 617 611.405 615.625 610.405C614 609.28 612.25 608.468 610.375 607.968C607 607.405 604.562 607.468 603.062 608.155C601.562 608.843 600.562 609.718 600.062 610.78C599.812 611.218 599.531 611.78 599.219 612.468C598.969 613.093 598.75 613.749 598.562 614.436C598.438 615.124 598.406 615.811 598.469 616.499C598.531 617.186 598.812 617.749 599.312 618.186C599.625 618.499 600.438 618.936 601.75 619.499C603.062 619.999 604.625 620.593 606.438 621.28C608.312 621.905 610.281 622.593 612.344 623.343C614.469 624.093 616.469 624.843 618.344 625.593C620.219 626.343 621.844 627.093 623.219 627.843C624.594 628.593 625.5 629.28 625.938 629.905C626.312 630.53 626.719 631.374 627.156 632.436C627.656 633.436 628 634.561 628.188 635.811C628.438 636.999 628.5 638.249 628.375 639.561C628.312 640.811 627.969 642.061 627.344 643.311C626.719 644.561 625.719 645.718 624.344 646.78C623.031 647.843 621.25 648.718 619 649.405C616.375 650.218 613.844 650.436 611.406 650.061C608.969 649.686 606.719 649.124 604.656 648.374C602.656 647.624 600.906 646.905 599.406 646.218C597.906 645.468 596.844 645.155 596.219 645.28C595.531 645.405 594.75 645.749 593.875 646.311C593 646.874 592.156 647.468 591.344 648.093C590.594 648.655 589.938 649.186 589.375 649.686C588.812 650.124 588.531 650.28 588.531 650.155C588.531 650.03 588.625 649.655 588.812 649.03C589.062 648.405 589.312 647.655 589.562 646.78C589.875 645.843 590.156 644.843 590.406 643.78C590.719 642.655 590.938 641.593 591.062 640.593C591.188 639.78 591.344 638.78 591.531 637.593C591.656 636.53 591.812 635.249 592 633.749C592.25 632.186 592.531 630.311 592.844 628.124C593.156 629.749 593.594 631.155 594.156 632.343C594.781 633.53 595.375 634.561 595.938 635.436C596.625 636.436 597.281 637.28 597.906 637.968C598.844 638.843 599.938 639.655 601.188 640.405C602.5 641.155 603.812 641.811 605.125 642.374C606.438 642.874 607.688 643.186 608.875 643.311C610.062 643.436 611.062 643.311 611.875 642.936C612.688 642.561 613.375 641.874 613.938 640.874C614.562 639.874 615 638.78 615.25 637.593C615.5 636.405 615.594 635.28 615.531 634.218C615.469 633.093 615.188 632.186 614.688 631.499C614.312 631.061 613.438 630.499 612.062 629.811C610.75 629.124 609.156 628.374 607.281 627.561C605.469 626.749 603.531 625.905 601.469 625.03C599.469 624.155 597.562 623.28 595.75 622.405C594 621.468 592.531 620.593 591.344 619.78C590.219 618.905 589.594 618.124 589.469 617.436C589.344 616.436 589.25 615.343 589.188 614.155C589.125 612.905 589.188 611.686 589.375 610.499C589.625 609.249 590.062 608.061 590.688 606.936C591.375 605.811 592.375 604.874 593.688 604.124C594.562 603.624 595.719 603.249 597.156 602.999C598.594 602.749 600.188 602.624 601.938 602.624C603.688 602.561 605.5 602.624 607.375 602.811C609.25 602.936 611.031 603.124 612.719 603.374C614.469 603.561 616.031 603.811 617.406 604.124C618.844 604.436 619.938 604.718 620.688 604.968C621.562 605.28 622.5 605.311 623.5 605.061C624.375 604.874 625.312 604.468 626.312 603.843C627.312 603.218 628.344 602.093 629.406 600.468Z" fill="black"/>
<defs>
<filter id="filter0_d_428_1077" x="102.431" y="63.2584" width="296.979" height="315.59" filterUnits="userSpaceOnUse" color-interpolation-filters="sRGB">
<feFlood flood-opacity="0" result="BackgroundImageFix"/>
<feColorMatrix in="SourceAlpha" type="matrix" values="0 0 0 0 0 0 0 0 0 0 0 0 0 0 0 0 0 0 127 0" result="hardAlpha"/>
<feOffset dy="4"/>
<feGaussianBlur stdDeviation="2"/>
<feComposite in2="hardAlpha" operator="out"/>
<feColorMatrix type="matrix" values="0 0 0 0 0 0 0 0 0 0 0 0 0 0 0 0 0 0 0.25 0"/>
<feBlend mode="normal" in2="BackgroundImageFix" result="effect1_dropShadow_428_1077"/>
<feBlend mode="normal" in="SourceGraphic" in2="effect1_dropShadow_428_1077" result="shape"/>
</filter>
<filter id="filter1_d_428_1077" x="391.846" y="61.1783" width="300.974" height="316.099" filterUnits="userSpaceOnUse" color-interpolation-filters="sRGB">
<feFlood flood-opacity="0" result="BackgroundImageFix"/>
<feColorMatrix in="SourceAlpha" type="matrix" values="0 0 0 0 0 0 0 0 0 0 0 0 0 0 0 0 0 0 127 0" result="hardAlpha"/>
<feOffset dy="4"/>
<feGaussianBlur stdDeviation="2"/>
<feComposite in2="hardAlpha" operator="out"/>
<feColorMatrix type="matrix" values="0 0 0 0 0 0 0 0 0 0 0 0 0 0 0 0 0 0 0.25 0"/>
<feBlend mode="normal" in2="BackgroundImageFix" result="effect1_dropShadow_428_1077"/>
<feBlend mode="normal" in="SourceGraphic" in2="effect1_dropShadow_428_1077" result="shape"/>
</filter>
<filter id="filter2_d_428_1077" x="221.713" y="144.474" width="349.697" height="144.904" filterUnits="userSpaceOnUse" color-interpolation-filters="sRGB">
<feFlood flood-opacity="0" result="BackgroundImageFix"/>
<feColorMatrix in="SourceAlpha" type="matrix" values="0 0 0 0 0 0 0 0 0 0 0 0 0 0 0 0 0 0 127 0" result="hardAlpha"/>
<feOffset dy="4"/>
<feGaussianBlur stdDeviation="2"/>
<feComposite in2="hardAlpha" operator="out"/>
<feColorMatrix type="matrix" values="0 0 0 0 0 0 0 0 0 0 0 0 0 0 0 0 0 0 0.25 0"/>
<feBlend mode="normal" in2="BackgroundImageFix" result="effect1_dropShadow_428_1077"/>
<feBlend mode="normal" in="SourceGraphic" in2="effect1_dropShadow_428_1077" result="shape"/>
</filter>
<linearGradient id="paint0_linear_428_1077" x1="110.083" y1="213.902" x2="684.524" y2="210.332" gradientUnits="userSpaceOnUse">
<stop stop-color="#03A52E"/>
<stop offset="1" stop-color="#084FA7"/>
</linearGradient>
<linearGradient id="paint1_linear_428_1077" x1="110.759" y1="209.48" x2="685.2" y2="205.91" gradientUnits="userSpaceOnUse">
<stop stop-color="#00C400"/>
<stop offset="1" stop-color="#084FA7"/>
</linearGradient>
<linearGradient id="paint2_linear_428_1077" x1="109.449" y1="203.326" x2="683.765" y2="225.442" gradientUnits="userSpaceOnUse">
<stop stop-color="#01BD0B"/>
<stop offset="1" stop-color="#0853A2"/>
</linearGradient>
</defs>
</svg>
